<?xml version="1.0" encoding="utf-8"?>
<!-- Generator: Adobe Illustrator 14.0.0, SVG Export Plug-In . SVG Version: 6.00 Build 43363)  -->
<!DOCTYPE svg PUBLIC "-//W3C//DTD SVG 1.1//EN" "http://www.w3.org/Graphics/SVG/1.1/DTD/svg11.dtd">
<svg version="1.1" id="Layer_1" xmlns="http://www.w3.org/2000/svg" xmlns:xlink="http://www.w3.org/1999/xlink" x="0px" y="0px"
	 width="360px" height="360px" viewBox="0 0 360 360" enable-background="new 0 0 360 360" xml:space="preserve">
<path fill="#333333" d="M26.806,316.648h11.703c5.333,0,9.205,0.76,11.613,2.277c2.41,1.52,3.614,3.932,3.614,7.242
	c0,2.248-0.529,4.09-1.583,5.529c-1.055,1.44-2.458,2.307-4.208,2.6v0.256c2.385,0.531,4.104,1.527,5.158,2.984
	s1.583,3.395,1.583,5.812c0,3.432-1.237,6.106-3.718,8.027c-2.478,1.921-5.845,2.88-10.097,2.88H26.806V316.648z M34.779,331.543
	h4.629c2.16,0,3.727-0.334,4.694-1.001c0.97-0.669,1.454-1.774,1.454-3.319c0-1.439-0.526-2.472-1.581-3.1
	c-1.055-0.627-2.722-0.938-5.003-0.938h-4.193V331.543z M34.779,337.871v9.802h5.198c2.193,0,3.813-0.419,4.863-1.261
	c1.049-0.84,1.569-2.125,1.569-3.857c0-3.119-2.23-4.684-6.688-4.684H34.779z M96.334,335.402c0,6.224-1.544,11.01-4.629,14.354
	c-3.085,3.345-7.51,5.018-13.272,5.018s-10.187-1.673-13.272-5.018c-3.088-3.345-4.629-8.146-4.629-14.405
	c0-6.261,1.547-11.039,4.643-14.342c3.097-3.301,7.532-4.952,13.312-4.952c5.779,0,10.198,1.665,13.261,4.989
	C94.804,324.374,96.334,329.161,96.334,335.402z M68.889,335.402c0,4.201,0.796,7.365,2.394,9.492
	c1.595,2.126,3.977,3.189,7.149,3.189c6.362,0,9.543-4.228,9.543-12.682c0-8.472-3.164-12.707-9.492-12.707
	c-3.172,0-5.566,1.065-7.178,3.203C69.694,328.036,68.889,331.2,68.889,335.402z M138.265,335.402c0,6.224-1.544,11.01-4.629,14.354
	c-3.085,3.345-7.509,5.018-13.272,5.018s-10.187-1.673-13.272-5.018c-3.088-3.345-4.629-8.146-4.629-14.405
	c0-6.261,1.547-11.039,4.643-14.342c3.097-3.301,7.532-4.952,13.312-4.952c5.78,0,10.198,1.665,13.261,4.989
	C136.732,324.374,138.265,329.161,138.265,335.402z M110.818,335.402c0,4.201,0.796,7.365,2.393,9.492
	c1.595,2.126,3.977,3.189,7.149,3.189c6.362,0,9.543-4.228,9.543-12.682c0-8.472-3.164-12.707-9.492-12.707
	c-3.172,0-5.566,1.065-7.178,3.203C111.623,328.036,110.818,331.2,110.818,335.402z M160.565,354.257h-7.973v-30.972H142.38v-6.637
	h28.398v6.637h-10.212V354.257z M198.762,343.814c0,3.396-1.221,6.072-3.664,8.026c-2.444,1.954-5.845,2.934-10.198,2.934
	c-4.014,0-7.563-0.757-10.648-2.265v-7.408c2.537,1.131,4.686,1.93,6.444,2.395c1.758,0.463,3.363,0.694,4.822,0.694
	c1.75,0,3.092-0.335,4.025-1.001c0.937-0.67,1.403-1.662,1.403-2.984c0-0.736-0.206-1.393-0.616-1.969
	c-0.41-0.574-1.016-1.128-1.814-1.66c-0.799-0.531-2.421-1.381-4.873-2.545c-2.299-1.08-4.022-2.117-5.17-3.113
	c-1.15-0.996-2.067-2.151-2.753-3.471c-0.686-1.322-1.029-2.865-1.029-4.629c0-3.328,1.128-5.943,3.383-7.848
	c2.256-1.903,5.372-2.854,9.352-2.854c1.955,0,3.819,0.23,5.595,0.693c1.773,0.465,3.631,1.114,5.568,1.955l-2.574,6.199
	c-2.005-0.821-3.664-1.398-4.978-1.725s-2.602-0.488-3.87-0.488c-1.51,0-2.666,0.352-3.473,1.055
	c-0.808,0.703-1.21,1.619-1.21,2.753c0,0.703,0.163,1.315,0.489,1.839s0.844,1.029,1.556,1.52c0.712,0.488,2.396,1.366,5.054,2.638
	c3.516,1.682,5.926,3.366,7.229,5.054C198.112,339.297,198.762,341.361,198.762,343.814L198.762,343.814z M220.09,354.257h-7.975
	v-30.972h-10.211v-6.637h28.397v6.637H220.09V354.257L220.09,354.257z M244.062,339.826v14.431h-7.973v-37.608h10.957
	c5.111,0,8.891,0.931,11.344,2.789c2.451,1.862,3.678,4.689,3.678,8.478c0,2.214-0.607,4.179-1.824,5.903
	c-1.219,1.725-2.942,3.074-5.17,4.051c5.658,8.453,9.346,13.916,11.062,16.385h-8.849l-8.977-14.431h-4.248V339.826z
	 M244.062,333.344h2.574c2.52,0,4.382-0.42,5.582-1.261c1.201-0.841,1.801-2.163,1.801-3.963c0-1.782-0.613-3.052-1.84-3.808
	c-1.227-0.754-3.125-1.131-5.697-1.131h-2.42V333.344L244.062,333.344z M293.889,354.257l-2.728-8.952H277.45l-2.728,8.952h-8.593
	l13.272-37.761h9.748l13.326,37.761H293.889z M289.258,338.617c-2.521-8.111-3.941-12.699-4.259-13.762
	c-0.317-1.063-0.543-1.904-0.681-2.521c-0.565,2.194-2.186,7.622-4.863,16.282H289.258z M333.194,328.379
	c0,4.047-1.266,7.145-3.794,9.284c-2.529,2.146-6.126,3.218-10.792,3.218h-3.42v13.376h-7.974v-37.608h12.013
	c4.562,0,8.029,0.981,10.406,2.944C332.007,321.559,333.194,324.486,333.194,328.379z M315.188,334.348h2.624
	c2.452,0,4.286-0.484,5.504-1.455c1.218-0.97,1.825-2.379,1.825-4.229c0-1.87-0.512-3.251-1.529-4.143
	c-1.021-0.892-2.622-1.339-4.799-1.339h-3.628v11.166H315.188z M207.987,159.635c-5.577-1.836-13.606-2.135-24.089-2.135H146.25
	v56.25h40.567c7.037,0,11.979-0.7,14.825-1.229c5.014-0.895,9.207-2.616,12.577-4.715c3.369-2.092,6.14-5.256,8.312-9.262
	c2.168-4.004,3.256-8.682,3.256-13.924c0-6.143-1.572-11.194-4.717-15.722C217.93,164.368,213.567,161.468,207.987,159.635
	L207.987,159.635z M202.205,135.414c5.54-1.648,9.717-4.629,12.521-8.446c2.809-3.816,4.213-8.727,4.213-14.496
	c0-5.464-1.311-10.336-3.932-14.496c-2.622-4.157-6.365-6.978-11.229-8.513c-4.871-1.53-13.219-2.275-25.048-2.275H146.25v50.625
	h35.176C191.087,137.812,198.012,136.69,202.205,135.414L202.205,135.414z M329.062,45.354c0-21.943-17.789-39.729-39.732-39.729
	H70.67c-21.943,0-39.732,17.786-39.732,39.729v218.666c0,21.943,17.789,39.729,39.732,39.729h218.66
	c21.943,0,39.732-17.786,39.732-39.729V45.354z M243.479,206.072c-3.254,6.626-7.281,11.736-12.072,15.33
	c-4.792,3.592-10.803,6.88-18.027,8.714c-7.226,1.837-16.079,3.321-26.562,3.321H123.75V67.5h62.058
	c12.581,0,22.666,1.744,30.266,5.074c7.603,3.333,13.55,8.497,17.862,15.421c4.303,6.927,6.457,14.192,6.457,21.755
	c0,7.037-1.912,13.671-5.727,19.887c-3.818,6.215-9.584,11.236-17.297,15.052c9.957,2.919,17.615,7.906,22.967,14.943
	c5.353,7.04,8.03,15.351,8.03,24.936C248.363,192.279,246.738,199.448,243.479,206.072L243.479,206.072z"/>
</svg>
