<?xml version="1.0" encoding="utf-8"?>
<!-- Generator: Adobe Illustrator 14.0.0, SVG Export Plug-In . SVG Version: 6.00 Build 43363)  -->
<!DOCTYPE svg PUBLIC "-//W3C//DTD SVG 1.1//EN" "http://www.w3.org/Graphics/SVG/1.1/DTD/svg11.dtd">
<svg version="1.1" id="Layer_1" xmlns="http://www.w3.org/2000/svg" xmlns:xlink="http://www.w3.org/1999/xlink" x="0px" y="0px"
	 width="360px" height="360px" viewBox="0 0 360 360" enable-background="new 0 0 360 360" xml:space="preserve">
<path fill="#333333" d="M250.971,16.47h-20.768l21.598,23.437v11.157h-44.482V38h21.594l-21.594-23.437V3.395h43.652V16.47
	L250.971,16.47z M198.498,16.47H177.73l21.598,23.437v11.157h-44.486V38h21.597l-21.597-23.437V3.395h43.656V16.47z M146.54,17.004
	h-22.41v20.45h22.41v13.609H108.2V3.395h38.34V17.004z"/>
<path fill="#333333" d="M77.662,328.236L54.889,72.824h250.22l-22.792,255.369l-102.471,28.412L77.662,328.236L77.662,328.236z"/>
<path fill="#333333" d="M180.003,334.891l82.797-22.956l19.479-218.225H180.003V334.891L180.003,334.891z"/>
<path fill="#FFFFFF" d="M180,186.244h41.451l2.865-32.077H180v-31.325h78.551l-0.752,8.403l-7.697,86.321H180V186.244z"/>
<path fill="#EBEBEB" d="M180.188,267.598l-0.138,0.04l-34.886-9.422l-2.233-24.983H111.49l4.391,49.185l64.164,17.812l0.146-0.042
	v-32.589H180.188z"/>
<path fill="#FFFFFF" d="M218.79,216.242l-3.774,41.951l-34.937,9.43v32.592l64.218-17.798l0.473-5.293l5.45-60.882H218.79
	L218.79,216.242z"/>
<path fill="#EBEBEB" d="M180.11,122.842v31.323h-75.665l-0.63-7.04l-1.426-15.879l-0.751-8.403H180.11z M180,186.246v31.326h-34.445
	l-0.627-7.039L143.5,194.65l-0.751-8.404H180z"/>
</svg>
