<?xml version="1.0" encoding="utf-8"?>
<!-- Generator: Adobe Illustrator 14.0.0, SVG Export Plug-In . SVG Version: 6.00 Build 43363)  -->
<!DOCTYPE svg PUBLIC "-//W3C//DTD SVG 1.1//EN" "http://www.w3.org/Graphics/SVG/1.1/DTD/svg11.dtd">
<svg version="1.1" id="Layer_1" xmlns="http://www.w3.org/2000/svg" xmlns:xlink="http://www.w3.org/1999/xlink" x="0px" y="0px"
	 width="360px" height="360px" viewBox="0 0 360 360" enable-background="new 0 0 360 360" xml:space="preserve">
<g>
	<path fill="#333333" d="M180,14.352c-93.789,0-169.841,76.036-169.841,169.841c0,75.043,48.665,138.704,116.148,161.164
		c8.485,1.576,11.602-3.684,11.602-8.17c0-4.05-0.158-17.429-0.23-31.621c-47.25,10.274-57.221-20.039-57.221-20.039
		C72.731,265.896,61.6,260.677,61.6,260.677c-15.413-10.542,1.161-10.322,1.161-10.322c17.052,1.195,26.036,17.503,26.036,17.503
		c15.148,25.959,39.732,18.455,49.424,14.118c1.524-10.978,5.926-18.473,10.783-22.714c-37.724-4.289-77.383-18.855-77.383-83.933
		c0-18.543,6.638-33.694,17.502-45.591c-1.766-4.275-7.58-21.549,1.643-44.944c0,0,14.259-4.564,46.715,17.41
		c13.551-3.766,28.083-5.659,42.52-5.724c14.428,0.065,28.969,1.952,42.545,5.718c32.416-21.974,46.659-17.409,46.659-17.409
		c9.245,23.392,3.431,40.668,1.668,44.944c10.89,11.896,17.479,27.047,17.479,45.59c0,65.234-39.732,79.593-77.552,83.801
		c6.095,5.271,11.522,15.609,11.522,31.452c0,22.725-0.197,41.015-0.197,46.609c0,4.52,3.061,9.814,11.667,8.147
		c67.444-22.483,116.052-86.124,116.052-161.14C349.841,90.394,273.797,14.355,180,14.355V14.352z"/>
	<path fill="#333333" d="M74.486,258.205c-0.374,0.844-1.702,1.096-2.911,0.52c-1.237-0.551-1.926-1.701-1.527-2.548
		c0.365-0.872,1.696-1.111,2.925-0.528c1.237,0.553,1.94,1.715,1.51,2.559L74.486,258.205z M81.366,265.88
		c-0.807,0.751-2.391,0.401-3.465-0.788c-1.113-1.181-1.322-2.764-0.498-3.526c0.838-0.748,2.374-0.394,3.487,0.788
		c1.108,1.197,1.328,2.767,0.479,3.529L81.366,265.88z M88.065,275.658c-1.041,0.727-2.745,0.049-3.797-1.462
		c-1.041-1.513-1.041-3.327,0.028-4.05c1.049-0.727,2.728-0.07,3.797,1.426c1.035,1.533,1.035,3.347-0.028,4.084V275.658z
		 M97.236,285.111c-0.928,1.027-2.914,0.751-4.365-0.646c-1.482-1.369-1.896-3.318-0.965-4.343c0.945-1.029,2.939-0.742,4.399,0.647
		c1.482,1.366,1.929,3.318,0.937,4.34L97.236,285.111z M109.893,290.599c-0.413,1.331-2.32,1.935-4.247,1.367
		c-1.921-0.583-3.178-2.138-2.785-3.481c0.394-1.342,2.315-1.969,4.253-1.365C109.035,287.699,110.292,289.246,109.893,290.599z
		 M123.795,291.614c0.048,1.4-1.583,2.56-3.6,2.587c-2.033,0.049-3.679-1.088-3.698-2.467c0-1.414,1.598-2.559,3.628-2.598
		c2.017-0.037,3.673,1.088,3.673,2.475L123.795,291.614z M136.727,289.414c0.242,1.365-1.162,2.768-3.167,3.143
		c-1.969,0.365-3.797-0.484-4.05-1.837c-0.242-1.401,1.187-2.804,3.156-3.167c2.008-0.346,3.808,0.479,4.062,1.865V289.414z"/>
</g>
</svg>
