<?xml version="1.0" encoding="utf-8"?>
<!-- Generator: Adobe Illustrator 14.0.0, SVG Export Plug-In . SVG Version: 6.00 Build 43363)  -->
<!DOCTYPE svg PUBLIC "-//W3C//DTD SVG 1.1//EN" "http://www.w3.org/Graphics/SVG/1.1/DTD/svg11.dtd">
<svg version="1.1" id="Layer_1" xmlns="http://www.w3.org/2000/svg" xmlns:xlink="http://www.w3.org/1999/xlink" x="0px" y="0px"
	 width="360px" height="360px" viewBox="0 0 360 360" enable-background="new 0 0 360 360" xml:space="preserve">
<path fill="#333333" d="M256.773,149.678c6.414-3.707,13.066-7.38,18.522-12.285c9.076-8.156,7.839-20.073-1.809-27.506
	c-1.792-1.381-4.044-3.161-4.489-5.119c-1.758-7.799-3.293-15.694,2.045-23.065c1.725-2.382,2.754-5.403,3.578-8.28
	c2.537-8.891-1.539-16.38-10.297-19.257c-1.555-0.512-3.197-0.799-4.823-1.029c-2.196-0.31-3.29-1.294-3.608-3.665
	c-1.176-8.755,1.082-13.542,9.244-17.221c4.262-1.921,8.908-2.981,13.394-4.433c-6.382-10.859-24.204-17.058-39.099-13.036
	c-11.993,3.237-20.408,11.084-28.283,19.974c-0.832,0.942-2.654,1.516-3.966,1.435c-3.819-0.239-3.692-3.274-3.118-5.805
	c1.195-5.271,2.789-10.448,4.277-15.865c-6.879,0.203-12.097,3.957-17.255,8.055c-0.347-0.549-0.599,0.627-0.743,0.281
	c-2.57-6.126-1.977-11.607-0.885-17.232h-0.833c-9.405,2.812-18.104,8.432-20.039,20.228l-1.482-0.922l-3.099-14.915
	c-8.511,5.769-13.193,13.056-14.481,22.762c-0.177,1.339-0.939,2.509-1.429,3.805c-1.294-0.714-2.925-1.184-3.831-2.233
	c-8.854-10.288-18.872-18.419-32.94-20.574c-12.487-1.912-27.9,4.168-33.725,13.841c5.141,1.955,10.572,3.484,15.486,6.019
	c5.9,3.043,7.875,8.049,7.245,13.677c-0.456,4.061-2.081,5.678-6.289,6.215c-9.256,1.187-14.65,8.477-13.32,17.657
	c0.461,3.189,1.403,6.798,3.372,9.183c4.579,5.538,4.081,11.79,3.949,18.118c-0.101,4.947-1.862,8.848-6.143,11.931
	c-9.225,6.651-10.333,18.86-1.867,26.502c5.549,5.012,12.259,8.832,18.762,12.659c4.826,2.844,8.038,6.787,8.288,12.057
	c0.411,8.666-0.079,17.378-0.354,26.067c-0.109,3.49-0.649,6.963-1.071,11.21c-7.479-6.75-11.498-14.372-13.57-23.647
	c-7.942,7.9-11.332,16.979-11.779,27.486c-0.802,18.791,7.242,32.201,24.173,40.047c1.438,0.667,2.711,2.178,3.527,3.604
	c7.085,12.395,17.212,20.652,31.391,23.571c1.595,0.329,3.484,0.377,4.694,1.28c7.765,5.808,16.605,8.623,26.083,9.467
	c14.318,1.273,28.108-0.248,40.398-8.674c1.195-0.821,2.645-1.494,4.059-1.735c14.764-2.507,25.355-10.722,32.904-23.417
	c1.152-1.943,3.149-3.755,5.186-4.748c8.496-4.129,15.238-9.895,19.049-18.711c3.834-8.873,4.838-18.163,3.043-27.562
	c-1.479-7.766-4.696-14.842-11.216-20.43c-2.014,9.276-6.081,16.867-13.638,22.778c-0.892-12.447-1.589-24.836-1.227-37.192
	C248.881,156.282,252.16,152.342,256.773,149.678L256.773,149.678z M262.058,25.456c-2.548,0.461-5.103,1.341-7.645,1.305
	c-11.995-0.171-20.677,5.552-27.47,14.87l-0.92,1.353l-0.694,0.546l-5.589-2.684C228.909,24.044,247.32,17.187,262.058,25.456
	L262.058,25.456z M249.514,33.469c-0.917,5.288-1.816,10.37-2.672,15.458c-0.399,2.391-0.869,4.522-3.789,5.248
	c-2.767,0.686-4.475,0.2-6.693-1.991c-2.91-2.877-2.638-5.127-0.995-8.218C238.537,37.994,242.938,33.98,249.514,33.469
	L249.514,33.469z M93.918,25.079c14.394-7.771,32.149-1.457,42.263,15.657l-5.816,2.934l1.497-1.966
	c-3.932-3.029-7.847-6.081-11.798-9.082c-5.473-4.162-11.703-5.83-18.54-5.861C98.963,26.747,96.401,25.937,93.918,25.079
	L93.918,25.079z M121.688,47.56c0.126,2.323-2.866,5.687-5.279,6.944c-1.375,0.714-5.2-1.313-6.578-3.125
	c-1.415-1.862-1.218-4.961-1.668-7.529c-0.304-1.755-0.385-3.558-0.799-5.282c-0.382-1.583-1.077-3.091-1.727-4.882
	C113.13,33.894,121.297,40.469,121.688,47.56z M93.35,223.771c-6.643-9.893-6.274-20.914-3.437-32.176
	c7.74,17.719,23.237,22.021,40.88,23.951c-5.929,6.807-11.064,13.537-6.967,23.221C111.15,237.879,100.364,234.214,93.35,223.771z
	 M131.796,260.114l-14.895-12.783c11.472-2.983,12.673,5.577,16.076,11.512L131.796,260.114z M189.042,272.228
	c-28.043,5.405-50.031-7.347-58.342-37.311c-2.129-7.67,2.455-12.69,11.21-12.8c12.029-0.152,24.067-0.039,36.099-0.039
	c11.618-0.012,23.237-0.025,34.855,0.006c1.364,0.002,2.771,0.098,4.089,0.418c7.281,1.775,10.145,5.566,8.044,12.686
	C219.541,253.705,209.404,268.305,189.042,272.228z M222.376,259.857c2.093-4.215,3.611-7.68,5.538-10.906
	c0.562-0.951,2.222-1.49,3.473-1.735c2.118-0.413,4.312-0.444,6.804-0.663C234.399,252.534,229.436,256.693,222.376,259.857z
	 M265.578,191.104c7.825,26.244-6.701,46.867-33.361,47.25c3.634-9.151-0.977-15.907-7.324-22.742
	C242.466,213.562,258.055,209.41,265.578,191.104z M240.266,163.519c-0.047,11.053,0.639,22.123,1.379,33.159
	c0.48,7.184,0.652,7.65-6.362,9.166c-4.143,0.895-8.474,1.174-12.718,1.168c-1.143,0-2.765-1.854-3.344-3.207
	c-4.498-10.516-8.781-21.121-13.166-31.686c-0.515-1.237-1.229-2.399-1.848-3.591l-1.353,1.35
	c4.117,15.382,8.237,32.622,12.251,46.685h-74.391c3.977-14.062,8.081-31.143,12.184-46.488l-1.628-0.996
	c-2.475,5.619-5.049,10.963-7.403,16.634c-2.587,6.237-5.029,12.422-7.417,18.742c-0.779,2.072-1.817,3.158-4.224,2.781
	c-4.748-0.736-9.518-1.375-14.282-2.006c-3.732-0.494-4.255-2.713-4.042-6.128c0.734-11.731,1.384-23.487,1.55-35.235
	c0.126-9.417-3.982-16.667-12.566-21.266c-4.852-2.602-9.729-5.349-14.012-8.761c-6.896-5.493-6.365-14.647,0.911-18.746
	l-0.498,5.445c7.343-8.859,11.047-27.099,5.768-44.519L94.475,81l-1.319,0.425c-1.634-4.225-3.854-8.333-4.736-12.71
	c-0.855-4.241,3.901-7.642,9.745-7.861c10.603-0.399,20.616,2.138,29.745,7.234c9.36,5.226,18.253,11.295,26.856,16.684
	c-1.665-5.985-8.994-13.061-28.237-26.702c21.169-22.073,81.835-21.89,102.915,0.225c-12.217,6.241-22.14,14.903-28.631,27.306
	c3.136-2.284,6.25-4.598,9.416-6.837c11.793-8.333,24.115-15.646,38.765-17.48c4.289-0.534,8.859-0.292,13.09,0.594
	c4.52,0.948,6.331,4.874,4.826,9.301c-1.165,3.434-2.923,6.668-4.416,9.993l-1.077-0.219l-0.86-4.852
	c-4.129,16.203-2.938,30.848,6.05,44.463l-0.742-5.313c5.664,2.422,7.81,9.523,4.1,14.839c-2.061,2.95-5.186,5.276-8.15,7.445
	c-2.765,2.022-5.895,3.589-8.972,5.141C244.258,147.004,240.306,154.384,240.266,163.519L240.266,163.519z M233.029,97.132
	c-10.363,2.844-18.576,8.969-25.641,16.808c-3.288,3.648-7.172,6.154-12.128,6.387c-2.374,0.112-4.776-0.481-7.262-0.768
	c0.934,6.728,5.667,8.93,10.089,9.922c2.602,6.052,4.887,11.376,7.18,16.701l1.285-0.585c-1.285-5.4-2.371-10.786,0.869-16.102
	c7.948,5.639,15.924,4.269,23.945,0.352c8.609-4.21,11.31-12.187,13.479-20.703l1.586,6.148c3.366-5.659,3.979-10.921-0.535-16.217
	l5.777-2.326C244.957,95.051,238.992,95.496,233.029,97.132L233.029,97.132z M230.673,122.923
	c-5.116,5.076-13.528,5.827-21.189,1.566c6.286-8.688,14.821-14.181,23.555-19.516C235.707,110.02,234.405,119.216,230.673,122.923z
	 M147.777,113.341c-6.219-7.051-13.652-12.499-22.655-15.514c-6.708-2.25-13.537-3.091-21.113-0.979l5.864,2.115
	c-4.292,5.206-3.78,10.457-0.667,16.437l1.868-6.444c1.747,8.871,3.231,16.566,11.669,20.835c8.027,4.064,15.069,5.386,23.507-1.046
	v16.473c0,0.121,2.56,0.242,3.038,0.363c2.166-5.184,5.127-10.367,7.503-16.059c7.442-2.45,10.137-4.7,10.173-10.212
	C159.05,121.852,153.144,119.424,147.777,113.341z M125.879,123.581c-4.278-3.459-5.954-12.262-3.347-18.753
	c9.02,5.597,17.618,10.983,23.594,19.628C139.579,128.604,131.583,128.194,125.879,123.581z M192.206,95.372
	c-9.79,5.102-18.877,5.051-28.642,0.008C174.209,107.235,181.285,107.643,192.206,95.372z M212.085,230.414
	c-3.032-0.138-9.585-0.025-9.585-0.025v0.236h-7.748l-0.631-0.109c-4.033,0.283-5.596,2.528-3.721,5.923
	c1.852,3.353,3.969,6.767,6.728,9.329c1.729,1.609,5.028,2.506,7.439,2.23c6.522-0.748,9.335-6.047,11.933-11.273
	C218.262,233.185,216.183,230.6,212.085,230.414z M161.901,230.442c-3.161-0.206-6.348-0.042-9.52-0.042
	c-3.175,0-6.359-0.139-9.523,0.042c-2.832,0.16-4.694,1.477-4.258,4.753c0.582,4.362,7.065,11.588,11.388,12.727
	c3.676,0.968,6.933,0.312,9.295-2.725c2.188-2.812,4.283-5.746,6.002-8.863C167.093,233.053,165.665,230.684,161.901,230.442z
	 M257.523,297.754h14.519v58.016c-6.649,0.954-12.24,0.867-16.92-5.447c-6.916-9.326-14.856-17.893-23.099-27.664v33.261h-14.252
	v-58.078c6.551-0.802,12.164-0.833,16.833,5.501c6.882,9.332,14.816,17.891,22.919,27.512V297.754z M97.02,298.182
	c9.818,0,19.387-0.574,28.848,0.174c8.038,0.639,14.552,4.548,16.487,13.348c1.716,7.794-1.479,14.203-9.565,19.646l16.082,24.53
	c-6.286,0-11.615,0.272-16.886-0.177c-1.502-0.127-3.158-2.124-4.174-3.646c-2.919-4.368-5.661-8.865-8.24-13.444
	c-1.488-2.641-3.274-4.044-6.764-3.025v20.301H97.02V298.182L97.02,298.182z M112.911,323.98c4.88,0.213,9.906,1.074,12.631-3.474
	c1.204-2.014,1.232-6.103-0.059-7.96c-2.956-4.249-7.945-3.139-12.569-2.975L112.911,323.98L112.911,323.98z M70.881,336.49h-7.929
	v-11.398h23.189c0,7.886,0.079,15.643-0.093,23.391c-0.022,1.08-1.046,2.633-2.028,3.125c-13.469,6.764-27.132,7.842-40.43-0.115
	c-10.406-6.227-15.14-18.369-12.783-30.634c2.317-12.054,10.929-20.687,23.254-23.088c10.122-1.974,19.881-1.147,28.854,4.438
	c1.37,0.855,2.551,2.017,4.019,3.195l-7.06,10.355c-2.753-1.449-5.13-2.818-7.605-3.98c-10.89-5.115-22.134-0.697-24.908,9.737
	c-3.507,13.177,4.514,23.535,17.708,22.877C71.561,344.07,71.933,343.595,70.881,336.49L70.881,336.49z M190.215,297.695h15.438
	c0.248,0.307,0.562,0.518,0.562,0.723c-0.047,12.737,0.453,25.512-0.368,38.201c-0.692,10.683-9.31,18.104-21.366,19.859
	c-7.141,1.041-14.11,0.184-20.506-3.496c-6.745-3.878-10.761-9.886-11.144-17.479c-0.56-11.067-0.23-22.179-0.275-33.269v-4.398
	h15.834c0.059,1.266,0.174,2.596,0.177,3.926c0.02,9.984-0.068,19.969,0.05,29.947c0.084,7.29,3.552,11.41,9.58,11.818
	c7.516,0.509,11.895-3.361,11.984-10.91c0.121-10.122,0.033-20.244,0.036-30.369L190.215,297.695L190.215,297.695z M329.785,297.844
	v12.201h-16.597c0,11.885,0.037,23.349-0.02,34.812c-0.02,3.569,1.071,8.686-0.779,10.303c-2.188,1.909-7.017,0.799-10.701,0.995
	l-0.413,0.003c-3.364,0.531-4.525-0.697-4.469-4.27c0.211-13.717,0.084-27.441,0.084-41.715h-16.625v-12.33H329.785L329.785,297.844
	z"/>
</svg>
