<?xml version="1.0" encoding="utf-8"?>
<!-- Generator: Adobe Illustrator 14.0.0, SVG Export Plug-In . SVG Version: 6.00 Build 43363)  -->
<!DOCTYPE svg PUBLIC "-//W3C//DTD SVG 1.1//EN" "http://www.w3.org/Graphics/SVG/1.1/DTD/svg11.dtd">
<svg version="1.1" id="Layer_1" xmlns="http://www.w3.org/2000/svg" xmlns:xlink="http://www.w3.org/1999/xlink" x="0px" y="0px"
	 width="360px" height="360px" viewBox="0 0 360 360" enable-background="new 0 0 360 360" xml:space="preserve">
<path fill="#333333" d="M78.339,327.246L55.718,73.527h248.563l-22.643,253.679l-101.791,28.218L78.339,327.246z"/>
<path fill="#333333" d="M180,333.855l82.248-22.805l19.354-216.776H180V333.855z"/>
<path fill="#EBEBEB" d="M180,188.375h-41.178l-2.841-31.868H180V125.39h-78.027l0.743,8.351l7.65,85.75H180V188.375z M180,269.188
	l-0.138,0.036l-34.653-9.36l-2.216-24.814h-31.238l4.359,48.859l63.742,17.695l0.144-0.041V269.188z"/>
<path fill="#333333" d="M78.846,4.576h15.812v15.626h14.467V4.576h15.814v47.312h-15.814V36.045H94.66v15.843H78.846V4.576z
	 M145.732,20.267h-13.922V4.576h43.664v15.69h-13.927v31.621h-15.815V20.267z M182.404,4.576h16.487l10.145,16.625L219.17,4.576
	h16.495v47.312h-15.753V28.437l-10.876,16.822h-0.275l-10.884-16.822v23.451h-15.475V4.576H182.404z M243.537,4.576h15.817V36.25
	h22.239v15.64h-38.057V4.576z"/>
<path fill="#FFFFFF" d="M179.893,188.375v31.115h38.318l-3.611,40.356l-34.707,9.368v32.373l63.792-17.68l0.468-5.26l7.312-81.92
	l0.759-8.354h-8.387H179.893z M179.893,125.39v31.118h75.164l0.622-6.995l1.421-15.772l0.744-8.351H179.893z"/>
</svg>
