<?xml version="1.0" encoding="utf-8"?>
<!-- Generator: Adobe Illustrator 14.0.0, SVG Export Plug-In . SVG Version: 6.00 Build 43363)  -->
<!DOCTYPE svg PUBLIC "-//W3C//DTD SVG 1.1//EN" "http://www.w3.org/Graphics/SVG/1.1/DTD/svg11.dtd">
<svg version="1.1" id="Layer_1" xmlns="http://www.w3.org/2000/svg" xmlns:xlink="http://www.w3.org/1999/xlink" x="0px" y="0px"
	 width="360px" height="360px" viewBox="0 0 360 360" enable-background="new 0 0 360 360" xml:space="preserve">
<path fill="#333333" d="M5.625,2.812v351.562h351.562V2.812H5.625z M191.584,302.381c-5.188,10.543-15.094,17.471-26.572,20.814
	c-17.637,4.051-34.506,1.741-47.056-5.791c-8.398-5.152-14.957-13.084-19.409-22.221l26.775-16.397
	c0.233,0.099,0.937,1.37,1.876,3.013c3.414,5.721,6.359,9.77,12.147,12.613c5.687,1.941,18.172,3.182,22.992-6.826
	c2.945-5.09,2.008-21.453,2.008-39.557c-0.003-28.449,0.129-56.779,0.129-84.904h32.931c0,30.938,0.169,60.238,0,90.428
	C197.477,272.059,199.083,288.557,191.584,302.381L191.584,302.381z M328.199,293.076c-11.447,39.156-75.268,40.428-100.771,14.559
	c-5.389-6.09-8.768-9.271-11.982-16.299c13.555-7.797,13.555-7.797,26.742-15.427c7.163,11.011,13.787,17.066,25.703,19.544
	c16.166,1.975,32.432-3.58,28.783-20.75c-3.749-14.023-33.104-17.436-53.08-32.432c-20.281-13.621-25.034-46.719-8.367-65.629
	c5.555-6.995,15.027-12.215,24.967-14.724l10.372-1.341c19.915-0.402,32.363,4.857,41.501,15.061
	c2.543,2.576,4.618,5.354,8.5,11.377c-10.609,6.761-10.575,6.696-25.771,16.534c-3.246-6.992-8.631-11.379-14.324-13.286
	c-8.836-2.677-19.98,0.233-22.291,9.571c-0.803,2.877-0.637,5.555,0.638,10.308c3.581,8.165,15.595,11.714,26.373,16.667
	c31.024,12.583,41.501,26.074,44.077,42.134C331.748,282.769,328.669,291.738,328.199,293.076L328.199,293.076z"/>
</svg>
