<?xml version="1.0" encoding="utf-8"?>
<!-- Generator: Adobe Illustrator 14.0.0, SVG Export Plug-In . SVG Version: 6.00 Build 43363)  -->
<!DOCTYPE svg PUBLIC "-//W3C//DTD SVG 1.1//EN" "http://www.w3.org/Graphics/SVG/1.1/DTD/svg11.dtd">
<svg version="1.1" id="Layer_1" xmlns="http://www.w3.org/2000/svg" xmlns:xlink="http://www.w3.org/1999/xlink" x="0px" y="0px"
	 width="360px" height="360px" viewBox="0 0 360 360" enable-background="new 0 0 360 360" xml:space="preserve">
<path fill="#333333" d="M134.89,222.244l0.543,0.264l0.967,0.467c1.235,0.588,2.481,1.17,3.738,1.73l0.79,0.352
	c1.443,0.633,2.894,1.234,4.362,1.813l1.063,0.417c1.355,0.528,2.734,1.04,4.115,1.526l0.518,0.177
	c1.516,0.529,3.046,1.021,4.59,1.502l1.111,0.33c1.569,0.475,3.119,1.04,4.739,1.342c102.808,18.744,132.668-61.783,132.668-61.783
	c-25.082,32.675-69.601,41.296-111.782,31.7c-1.598-0.36-3.15-0.86-4.708-1.322l-1.173-0.354c-1.522-0.467-3.035-0.959-4.534-1.474
	l-0.621-0.225c-1.345-0.473-2.675-0.974-3.997-1.482l-1.12-0.438c-1.451-0.571-2.891-1.17-4.314-1.795l-0.863-0.383
	c-1.224-0.553-2.436-1.113-3.639-1.692l-1.055-0.507c-0.945-0.461-1.882-0.953-2.815-1.434l-1.879-0.984
	c-1.139-0.61-2.258-1.243-3.372-1.893l-1.139-0.637c-1.482-0.874-2.947-1.777-4.396-2.693l-1.184-0.788
	c-1.052-0.678-2.098-1.366-3.127-2.078l-1.007-0.709c-0.996-0.703-1.98-1.415-2.956-2.137l-1.311-0.993
	c-0.895-0.683-1.786-1.373-2.666-2.081l-1.19-0.957c-1.119-0.922-2.228-1.848-3.324-2.798l-0.363-0.306
	c-1.19-1.035-2.352-2.101-3.499-3.17l-0.984-0.948c-0.852-0.807-1.688-1.623-2.511-2.458l-0.984-0.984
	c-1.046-1.072-2.073-2.157-3.08-3.257l-0.152-0.163c-1.066-1.164-2.106-2.354-3.125-3.555l-0.818-0.973
	c-0.759-0.914-1.513-1.842-2.247-2.779l-0.824-1.024c-0.886-1.147-1.75-2.292-2.596-3.457
	C81.321,117.208,72.906,73.15,91.623,36.967L75.032,58.011c-21.26,30.552-18.61,70.304-2.374,102.771l1.189,2.309l0.762,1.462
	l0.473,0.841l0.847,1.516c0.503,0.889,1.018,1.772,1.547,2.655l0.886,1.46c0.585,0.945,1.184,1.879,1.8,2.812l0.765,1.187
	c0.847,1.26,1.713,2.52,2.604,3.757l0.076,0.099l0.438,0.593c0.773,1.066,1.569,2.118,2.374,3.159l0.894,1.136
	c0.717,0.903,1.451,1.803,2.194,2.697l0.838,0.999c0.998,1.178,2.016,2.348,3.057,3.492l0.062,0.064l0.118,0.13
	c1.013,1.108,2.053,2.188,3.105,3.274l0.996,1.004c0.816,0.82,1.643,1.628,2.481,2.433l1.015,0.964
	c1.117,1.053,2.245,2.085,3.397,3.098l0.056,0.042l0.591,0.506c1.015,0.878,2.05,1.753,3.091,2.61l1.28,1.018
	c0.849,0.682,1.71,1.354,2.576,2.014l1.375,1.047c0.956,0.703,1.918,1.395,2.888,2.072l1.055,0.748l0.29,0.205
	c0.922,0.637,1.864,1.244,2.807,1.854l1.215,0.811c1.443,0.914,2.911,1.816,4.393,2.689l1.215,0.686
	c1.091,0.627,2.185,1.243,3.296,1.846l1.822,0.944L134.89,222.244L134.89,222.244z M145.277,118.758
	c2.303,3.302,4.854,7.228,7.912,9.883c1.108,1.22,2.267,2.407,3.448,3.58l0.911,0.895c1.15,1.114,2.317,2.208,3.521,3.273
	l0.146,0.124l0.034,0.037c1.336,1.17,2.714,2.295,4.115,3.403l0.937,0.731c1.406,1.077,2.838,2.135,4.306,3.145l0.126,0.093
	l1.963,1.293l0.934,0.619c1.049,0.669,2.109,1.327,3.192,1.952l0.45,0.262c0.931,0.537,1.876,1.066,2.821,1.578l1.001,0.526
	l1.975,1.021l0.299,0.135c1.355,0.667,2.722,1.308,4.117,1.918l0.908,0.374c1.113,0.472,2.242,0.937,3.372,1.37l1.446,0.529
	c1.029,0.382,2.059,0.731,3.099,1.077l1.403,0.45c1.479,0.458,2.939,1.038,4.48,1.294c79.375,13.154,97.701-47.964,97.701-47.964
	c-16.521,23.791-48.51,35.139-82.648,26.28c-1.516-0.399-3.012-0.83-4.494-1.299l-1.354-0.436c-1.055-0.34-2.104-0.703-3.145-1.083
	l-1.417-0.529c-1.14-0.438-2.27-0.892-3.386-1.364l-0.912-0.388c-1.4-0.61-2.781-1.252-4.14-1.927l-2.079-1.058l-1.197-0.616
	c-0.883-0.478-1.761-0.979-2.627-1.482l-0.627-0.357c-1.078-0.627-2.135-1.274-3.184-1.938l-0.959-0.644l-2.06-1.361
	c-1.466-1.01-2.888-2.064-4.289-3.136l-0.964-0.762c-14.943-11.793-26.787-27.92-32.42-46.204
	c-5.9-18.957-4.629-40.241,5.594-57.513l-12.561,17.736c-15.374,22.12-14.538,51.739-2.545,75.136
	C140.49,111.327,142.749,115.135,145.277,118.758L145.277,118.758z M228.94,91.389l1.972,0.684l0.869,0.276
	c0.936,0.292,1.861,0.635,2.826,0.815c43.827,8.468,55.719-22.492,58.883-27.048c-10.415,14.994-27.914,18.591-49.388,13.379
	c-1.696-0.411-3.561-1.021-5.198-1.603c-2.095-0.748-4.159-1.597-6.167-2.559c-3.813-1.834-7.448-4.053-10.817-6.601
	c-19.215-14.583-31.15-42.39-18.613-65.042l-6.783,9.349c-9.062,13.34-9.953,29.906-3.664,44.632
	C199.49,73.308,213.08,85.57,228.94,91.389L228.94,91.389z M186.635,270.83h-11.886c-0.658,0-1.313,0.528-1.454,1.172l-4.219,19.52
	l-4.219,19.519c-0.138,0.644-0.793,1.173-1.451,1.173h-8.412c-8.322,0-7.36-5.758-5.656-13.644l0.051-0.239l0.186-0.995l0.034-0.187
	l0.379-2.024l0.408-2.169l0.433-2.207l1.918-9.371l1.921-9.371c0.132-0.647-0.301-1.18-0.959-1.18h-12.198
	c-0.658,0-1.311,0.529-1.445,1.176l-2.624,12.443l-2.622,12.445l-0.005,0.017l-0.242,1.159
	c-3.021,13.789-2.222,26.943,14.197,27.357l0.478,0.008h25.771c0.658,0,1.313-0.529,1.451-1.173l5.557-26.126l5.559-26.127
	C187.723,271.358,187.295,270.832,186.635,270.83z M59.352,270.691h-13.05c-0.661,0-1.319,0.529-1.465,1.17l-1.237,5.463
	l-1.238,5.461c-0.144,0.645,0.276,1.17,0.937,1.17H56.45c0.661,0,1.316-0.528,1.457-1.172l1.195-5.459l1.195-5.459
	C60.435,271.221,60.013,270.691,59.352,270.691z M55.566,287.69H42.413c-0.658,0-1.319,0.528-1.465,1.171l-1.848,8.184l-1.845,8.182
	l-0.515,2.346l-1.775,8.354l-1.771,8.355c-0.138,0.645-0.422,1.685-0.633,2.309c0,0-2.458,7.312-6.59,7.229l-0.518-0.012
	l-3.575-0.064h-0.003c-0.658-0.008-1.319,0.506-1.474,1.145l-1.364,5.735l-1.361,5.731c-0.155,0.642,0.261,1.17,0.917,1.182
	c2.343,0.027,7.591,0.087,10.767,0.087c10.319,0,15.761-5.718,19.246-22.171l4.081-18.883l3.828-17.711
	C56.652,288.219,56.225,287.69,55.566,287.69z M297.771,283.264l-0.546-2.253l-0.537-2.306l-0.272-1.164
	c-1.069-4.154-4.204-6.549-11.017-6.549l-10.604-0.011l-9.765-0.015h-10.988c-0.658,0-1.311,0.529-1.448,1.174l-0.486,2.295
	l-0.574,2.711l-0.16,0.762l-4.947,23.176l-4.697,21.999c-0.141,0.647-0.186,1.44-0.106,1.761c0.079,0.323,1.347,0.588,2.005,0.588
	h9.912c0.66,0,1.496-0.118,1.855-0.265c0.36-0.146,0.892-1.442,1.023-2.087l1.762-8.716l1.763-8.719l0.003-0.014l0.236-1.161
	l2.137-10.014l1.888-8.842c0.141-0.645,0.79-1.17,1.448-1.173l31.188-0.015C297.504,284.434,297.92,283.908,297.771,283.264
	L297.771,283.264z M337.919,262.901l-2.401,0.009h-9.982c-0.66,0-1.507,0.447-1.875,0.992l-22.076,32.338
	c-0.371,0.546-0.795,0.467-0.941-0.174l-1.626-7.124c-0.146-0.644-0.808-1.171-1.468-1.171h-14.189c-0.661,0-1.052,0.518-0.872,1.15
	l6.359,22.278c0.18,0.636,0.194,1.677,0.03,2.317l-2.77,10.78c-0.166,0.642,0.238,1.161,0.9,1.161h14.025
	c0.658,0,1.333-0.522,1.496-1.161l2.773-10.78c0.163-0.645,0.621-1.595,1.021-2.123l35.837-47.562
	c0.399-0.529,0.183-0.959-0.476-0.953L337.919,262.901z M225.178,290.799v-0.012c-0.082,0.715-0.743,1.24-1.404,1.24h-17.991
	c-0.624,0-0.939-0.422-0.847-0.945l0.018-0.041l-0.012,0.005l0.008-0.06l0.082-0.307c1.719-4.566,5.217-7.564,11.795-7.564
	C224.234,283.111,225.681,286.729,225.178,290.799L225.178,290.799z M219.898,270.031c-23.094,0-28.566,14.018-31.639,28.167
	c-3.068,14.423-2.807,27.903,21.094,27.903h2.897l0.72-0.004h0.169l2.868-0.008h0.051c6.312-0.025,12.643-0.073,15.205-0.093
	c0.655-0.011,1.297-0.538,1.432-1.182l0.967-4.728l0.189-0.92l1.152-5.642c0.133-0.644-0.298-1.176-0.959-1.176h-21.484
	c-8.547,0-11.084-2.27-10.148-8.946h34.344l-0.002,0.002l0.021-0.002c0.547-0.009,1.053-0.386,1.252-0.887l0.082-0.298l-0.003,0.003
	C243.205,282.988,241.742,270.033,219.898,270.031L219.898,270.031z M110.745,290.725l-0.326,1.15v0.004l-2.593,9.191l-2.593,9.188
	c-0.177,0.639-0.866,1.156-1.527,1.156H89.98c-10.412,0-12.949-8.145-10.412-20.154c2.534-12.285,7.504-19.921,17.752-20.694
	C111.327,269.508,114.128,279.357,110.745,290.725z M120.161,310.708c0,0,6.472-15.716,7.94-24.789
	c2.005-12.147-4.078-29.771-27.574-29.771c-23.361,0-33.508,16.822-37.378,35.111c-3.87,18.422,1.201,34.574,24.43,34.441
	l18.326-0.066l17.125-0.062c0.658-0.006,1.333-0.529,1.502-1.164l2.984-11.38c0.166-0.642-0.236-1.164-0.897-1.17l-2.86-0.017
	l-2.86-0.018c-0.56-0.002-0.88-0.368-0.812-0.849L120.161,310.708z M235.811,300.187c0,0.437-0.352,0.79-0.787,0.79
	c-0.433,0-0.787-0.354-0.787-0.79c0-0.433,0.352-0.784,0.787-0.784S235.811,299.754,235.811,300.187z"/>
</svg>
