<?xml version="1.0" encoding="utf-8"?>
<!-- Generator: Adobe Illustrator 14.0.0, SVG Export Plug-In . SVG Version: 6.00 Build 43363)  -->
<!DOCTYPE svg PUBLIC "-//W3C//DTD SVG 1.1//EN" "http://www.w3.org/Graphics/SVG/1.1/DTD/svg11.dtd">
<svg version="1.1" id="Layer_1" xmlns="http://www.w3.org/2000/svg" xmlns:xlink="http://www.w3.org/1999/xlink" x="0px" y="0px"
	 width="360px" height="360px" viewBox="0 0 360 360" enable-background="new 0 0 360 360" xml:space="preserve">
<path fill="#333333" d="M321.539,227.106c-0.815,0-1.626-0.214-2.34-0.63l-7.453-4.41c-1.114-0.621-0.571-0.844-0.203-0.971
	c1.485-0.518,1.786-0.638,3.37-1.532c0.166-0.093,0.382-0.06,0.554,0.042l5.724,3.4c0.208,0.115,0.503,0.115,0.691,0l22.323-12.884
	c0.211-0.118,0.343-0.357,0.343-0.604v-25.763c0-0.253-0.132-0.487-0.346-0.616l-22.314-12.873c-0.208-0.118-0.48-0.118-0.688,0
	l-22.312,12.875c-0.213,0.126-0.352,0.368-0.352,0.613v25.763c0,0.247,0.139,0.48,0.352,0.596l6.115,3.535
	c3.318,1.656,5.352-0.295,5.352-2.258v-25.439c0-0.357,0.29-0.641,0.647-0.641h2.832c0.352,0,0.644,0.283,0.644,0.641v25.439
	c0,4.427-2.41,6.967-6.609,6.967c-1.291,0-2.307,0-5.141-1.396l-5.854-3.37c-1.448-0.838-2.34-2.401-2.34-4.072v-25.762
	c0-1.674,0.892-3.234,2.34-4.067l22.323-12.901c1.412-0.796,3.288-0.796,4.688,0l22.322,12.901c1.446,0.835,2.344,2.396,2.344,4.067
	v25.762c0,1.674-0.897,3.229-2.344,4.072l-22.322,12.888C323.176,226.893,322.369,227.106,321.539,227.106 M328.438,209.357
	c-9.773,0-11.818-4.486-11.818-8.246c0-0.355,0.29-0.645,0.646-0.645h2.886c0.323,0,0.591,0.23,0.642,0.545
	c0.433,2.939,1.735,4.422,7.645,4.422c4.699,0,6.702-1.063,6.702-3.561c0-1.44-0.568-2.506-7.875-3.223
	c-6.109-0.605-9.887-1.953-9.887-6.844c0-4.502,3.797-7.191,10.159-7.191c7.152,0,10.69,2.483,11.138,7.811
	c0.017,0.18-0.048,0.357-0.169,0.495c-0.124,0.126-0.292,0.205-0.473,0.205h-2.899c-0.301,0-0.565-0.211-0.627-0.503
	c-0.698-3.094-2.386-4.082-6.973-4.082c-5.133,0-5.729,1.792-5.729,3.128c0,1.623,0.703,2.096,7.636,3.013
	c6.859,0.908,10.119,2.19,10.119,7.014C339.564,206.57,335.509,209.357,328.438,209.357 M275.574,192.459
	c0.881-0.514,1.424-1.453,1.424-2.475v-6.621c0-1.018-0.541-1.957-1.424-2.472l-23.523-13.658c-0.887-0.515-1.978-0.517-2.866-0.005
	l-23.67,13.666c-0.884,0.512-1.429,1.454-1.429,2.475v27.326c0,1.027,0.551,1.978,1.445,2.486l23.521,13.402
	c0.866,0.497,1.93,0.5,2.804,0.016l14.226-7.908c0.453-0.253,0.734-0.726,0.736-1.237c0.004-0.518-0.271-0.995-0.719-1.251
	l-23.816-13.67c-0.447-0.256-0.721-0.729-0.721-1.236v-8.567c0-0.513,0.273-0.981,0.715-1.235l7.416-4.274
	c0.439-0.256,0.984-0.256,1.426,0l7.417,4.274c0.444,0.256,0.718,0.727,0.718,1.235v6.739c0,0.514,0.272,0.986,0.714,1.24
	c0.444,0.256,0.99,0.256,1.435-0.004L275.574,192.459 M250.268,191.177c0.172-0.096,0.379-0.096,0.549,0l4.541,2.624
	c0.17,0.099,0.273,0.281,0.273,0.476v5.245c0,0.197-0.104,0.377-0.273,0.476l-4.541,2.621c-0.17,0.099-0.381,0.099-0.549,0
	l-4.539-2.621c-0.172-0.099-0.275-0.278-0.275-0.476v-5.245c0-0.194,0.104-0.377,0.275-0.476L250.268,191.177 M188.671,202.09
	c0,0.252-0.135,0.488-0.356,0.618l-8.129,4.686c-0.222,0.13-0.495,0.13-0.714,0l-8.128-4.686c-0.222-0.13-0.357-0.366-0.357-0.618
	v-9.389c0-0.253,0.138-0.492,0.357-0.621l8.128-4.691c0.222-0.133,0.495-0.133,0.717,0l8.131,4.691
	c0.22,0.129,0.354,0.368,0.354,0.621v9.389H188.671z M190.867,132.576c-0.441-0.245-0.981-0.239-1.42,0.017
	c-0.436,0.259-0.706,0.726-0.706,1.232v36.324c0,0.354-0.191,0.686-0.497,0.866c-0.311,0.177-0.692,0.177-1.002,0l-5.929-3.417
	c-0.883-0.509-1.972-0.509-2.854,0l-23.676,13.663c-0.886,0.512-1.432,1.457-1.432,2.479v27.334c0,1.021,0.545,1.963,1.429,2.479
	l23.676,13.671c0.883,0.513,1.974,0.513,2.86,0l23.682-13.671c0.883-0.516,1.428-1.457,1.428-2.479v-68.138
	c0-1.035-0.562-1.991-1.465-2.498L190.867,132.576 M107.544,167.082c0.883-0.512,1.974-0.512,2.857,0l23.676,13.66
	c0.883,0.512,1.429,1.457,1.429,2.479v27.343c0,1.021-0.546,1.966-1.429,2.478l-23.673,13.672c-0.883,0.509-1.975,0.509-2.86,0
	l-23.667-13.672c-0.883-0.512-1.429-1.457-1.429-2.478v-27.347c0-1.018,0.546-1.963,1.429-2.475L107.544,167.082 M64.491,182.992
	c0-1.029-0.54-1.975-1.429-2.482l-23.667-13.622c-0.405-0.236-0.852-0.357-1.305-0.374h-0.245c-0.45,0.017-0.9,0.138-1.305,0.374
	L12.87,180.51c-0.88,0.508-1.432,1.453-1.432,2.482l0.051,36.676c0,0.512,0.267,0.986,0.714,1.234c0.438,0.264,0.981,0.264,1.42,0
	l14.062-8.055c0.889-0.529,1.432-1.46,1.432-2.48v-17.135c0-1.023,0.54-1.965,1.426-2.478l5.99-3.448
	c0.444-0.262,0.934-0.385,1.429-0.385c0.49,0,0.99,0.123,1.426,0.385l5.985,3.448c0.886,0.513,1.432,1.454,1.432,2.478v17.135
	c0,1.021,0.548,1.957,1.432,2.48l14.062,8.055c0.441,0.264,0.993,0.264,1.429,0c0.436-0.25,0.708-0.726,0.708-1.234L64.491,182.992"
	/>
</svg>
