<?xml version="1.0" encoding="utf-8"?>
<!-- Generator: Adobe Illustrator 14.0.0, SVG Export Plug-In . SVG Version: 6.00 Build 43363)  -->
<!DOCTYPE svg PUBLIC "-//W3C//DTD SVG 1.1//EN" "http://www.w3.org/Graphics/SVG/1.1/DTD/svg11.dtd">
<svg version="1.1" id="Layer_1" xmlns="http://www.w3.org/2000/svg" xmlns:xlink="http://www.w3.org/1999/xlink" x="0px" y="0px"
	 width="360px" height="360px" viewBox="0 0 360 360" enable-background="new 0 0 360 360" xml:space="preserve">
<path fill="#333333" d="M141.317,117.045c-10.355-2.602-20.725-1.766-31.669-0.062c0,19.139-0.039,37.764,0.104,56.391
	c0.006,0.954,1.438,2.613,2.366,2.74c11.933,1.611,23.802,1.741,34.962-3.699c11.545-5.625,17.426-17.387,15.902-31.196
	C161.598,128.644,154.153,120.271,141.317,117.045z M357.188,179.896V9.239c0-5.895,0.064-6.427-5.659-6.427H9.785
	c-5.566,0-6.972,0.534-6.972,6.148v341.745c0,5.676,0.709,5.684,6.213,5.684c114.061,0.003,228.462-0.025,342.523,0.104
	c4.424,0.006,5.61-1.172,5.6-5.509C356.996,293.954,357.188,236.92,357.188,179.896z M158.49,196.32
	c-15.629,5.575-31.928,5.887-48.803,4.58v63.475H78.75v-3.943c0-53.143-0.245-106.278-0.394-159.418
	c-0.017-4.413,0.683-6.544,5.656-7.051c23.434-2.396,46.735-5.091,70.037,0.374c25.048,5.87,39.49,22.43,40.588,45.31
	C195.994,167.979,183.544,187.386,158.49,196.32L158.49,196.32z M283.111,232.191c-1.191,16.23-10.344,26.888-25.354,32.04
	c-20.088,6.896-40.064,5.296-59.695-2.506c-3.215-1.28-3.837-2.899-2.776-6.177c1.933-5.979,3.347-12.127,4.837-17.679
	c8.301,2.436,16.191,5.476,24.368,6.913c5.774,1.016,12.015,0.419,17.884-0.501c5.263-0.827,9.049-4.398,9.912-10.046
	c0.877-5.74-0.853-10.713-5.92-13.768c-4.028-2.424-8.467-4.159-12.722-6.193c-6.843-3.271-14.136-5.836-20.446-9.928
	c-24.838-16.107-16.752-46.077-0.178-57.364c8.867-6.036,18.681-8.713,29.186-9.082c12.355-0.433,24.252,1.699,35.938,7.377
	l-6.173,21.906c-4.894-1.732-9.45-3.982-14.259-4.876c-5.707-1.063-11.692-1.657-17.452-1.187
	c-7.724,0.633-12.245,5.962-12.245,12.572c0,3.915,1.484,7.228,4.75,9.126c4.686,2.727,9.658,4.973,14.586,7.254
	c5.332,2.467,10.963,4.362,16.096,7.178C277.144,204.762,284.273,216.377,283.111,232.191L283.111,232.191z"/>
</svg>
