<?xml version="1.0" encoding="utf-8"?>
<!-- Generator: Adobe Illustrator 14.0.0, SVG Export Plug-In . SVG Version: 6.00 Build 43363)  -->
<!DOCTYPE svg PUBLIC "-//W3C//DTD SVG 1.1//EN" "http://www.w3.org/Graphics/SVG/1.1/DTD/svg11.dtd">
<svg version="1.1" id="Layer_1" xmlns="http://www.w3.org/2000/svg" xmlns:xlink="http://www.w3.org/1999/xlink" x="0px" y="0px"
	 width="360px" height="360px" viewBox="0 0 360 360" enable-background="new 0 0 360 360" xml:space="preserve">
<path fill="#333333" d="M178.338,281.865c5.04,4.169,10.949,5.946,17.328,6.275c2.638,0.138,5.352,0.008,7.947-0.464
	c4.118-0.749,8.225-1.688,12.229-2.894c8.156-2.461,15.205-6.715,20.467-13.582c2.998-3.915,5.459-8.148,7.04-12.828
	c1.306-3.861,2.531-7.762,3.507-11.714c0.771-3.114,1.154-6.328,1.621-9.509c0.312-2.104,0.5-4.23,0.693-6.354
	c0.316-3.445,0.645-6.885,0.873-10.339c0.16-2.401,0.154-4.815,0.247-7.22c0.03-0.734,0.149-1.463,0.22-2.191
	c0.059-0.678,0.402-0.911,1.094-0.9c2.43,0.037,4.865,0.1,7.293-0.011c2.719-0.12,5.459-0.239,8.137-0.687
	c3.808-0.638,7.596-1.445,11.328-2.418c4.41-1.156,8.457-3.224,12.355-5.574c4.533-2.742,8.674-5.957,12.023-10.1
	c2.922-3.606,4.306-7.785,3.6-12.345c-1.023-6.624-6.59-10.963-13.061-11.258c-2.346-0.107-4.725,0.141-7.06,0.436
	c-2.827,0.36-5.61,0.996-8.429,1.415c-1.947,0.292-3.918,0.422-5.859,0.625l-0.053-0.253c3.628-6.854,7.408-13.629,10.84-20.576
	c2.635-5.333,4.885-10.854,7.211-16.338c3.853-9.079,6.927-18.436,9.475-27.951c2.439-9.106,4.525-18.312,5.187-27.762
	c0.265-3.772,0.447-7.56,0.422-11.337c-0.017-3.015-0.343-6.033-0.644-9.037c-0.344-3.442-1.385-6.705-2.824-9.844
	c-1.896-4.14-4.84-7.535-7.938-10.758c-2.477-2.582-5.205-4.933-7.908-7.284c-3.855-3.353-8.192-6.033-12.692-8.41
	c-5.116-2.7-10.491-4.815-16.099-6.244c-3.393-0.863-6.857-1.625-10.289-2.309c-1.226-0.248-2.463-0.877-3.697-0.877h-23.254
	c-0.842,0-1.674,0.551-2.521,0.644c-5.565,0.622-11.067,1.729-16.411,3.389c-1.996,0.616-3.819,0.256-5.718,0.079
	c-1.456-0.135-2.888-0.509-4.345-0.582c-5.544-0.276-11.093-0.675-16.639-0.616c-5.31,0.056-10.566,0.934-15.705,2.391
	c-4.3,1.227-8.51,2.714-12.369,4.978c-1.648,0.968-2.959,0.785-4.666,0.295c-5.74-1.656-11.517-3.209-17.342-4.511
	c-3.631-0.812-7.369-1.223-11.079-1.606c-3.558-0.371-7.135-0.59-10.713-0.667c-3.493-0.076-7.009-0.073-10.488,0.236
	c-5.538,0.492-10.969,1.617-16.25,3.434c-5.864,2.02-11.242,4.941-16.087,8.778c-4.922,3.896-8.871,8.646-12.041,14.077
	c-3.344,5.729-5.642,11.863-7.065,18.301c-0.773,3.49-0.489,7.079-1.021,10.623c-0.163,1.097,0.166,2.199,0.166,3.302v15.426
	c0,1.024-0.301,2.051-0.171,3.08c0.318,2.472,0.208,4.964,0.627,7.419c0.658,3.887,1.251,7.759,2.05,11.618
	c1.117,5.392,2.183,10.777,3.42,16.144c0.9,3.906,1.876,7.791,2.948,11.652c1.631,5.901,3.223,11.81,5.071,17.64
	c1.719,5.42,3.676,10.761,5.631,16.104c2.706,7.391,5.934,14.543,9.815,21.395c3.361,5.938,7.194,11.498,12.341,16.068
	c3.395,3.015,7.166,5.329,11.557,6.488c3.454,0.905,6.969,1.016,10.499,0.292c4.098-0.838,7.729-2.604,10.955-5.245
	c0.371-0.301,0.773-0.535,1.215,0.022c1.671,2.114,3.904,3.526,6.241,4.745c6.306,3.29,13.176,4.277,20.154,4.677
	c1.693,0.096,3.397-0.146,5.099-0.191c3.321-0.093,6.544-0.739,9.714-1.656c1.665-0.481,3.288-1.095,4.981-1.663
	c0.087,1.804,0.2,3.536,0.256,5.271l0.233,9.459c0.045,1.439,0.101,2.879,0.233,4.313c0.343,3.696,0.678,7.392,1.12,11.075
	c0.304,2.541,0.624,5.097,1.221,7.578c1.204,5,2.829,9.869,4.899,14.591C171.512,274.729,174.434,278.641,178.338,281.865
	L178.338,281.865z M168.238,234.706c-0.2-4.44-0.349-8.885-0.447-13.329c-0.118-5.461-0.158-10.926-0.233-16.388l-0.014-0.208
	c-2.776,1.668-5.513,3.49-8.407,4.994c-3.395,1.764-7.079,2.785-10.896,3.074c-2.99,0.226-6.024,0.431-9,0.194
	c-4.882-0.396-9.765-1.159-14.136-3.565c-1.771-0.977-3.623-2.166-4.846-3.722c-2.928-3.737-1.524-8.46,2.891-10.732
	c3.052-1.575,6.382-2.23,9.689-2.995c2.872-0.664,5.735-1.42,8.539-2.334c2.773-0.909,4.522-3.159,6.252-5.367l2.739-3.521
	l-3.293-0.343c-3.268-0.304-6.387-1.207-9.368-2.528c-2.548-1.128-2.587-1.251-4.46,0.779c-3.122,3.389-6.16,6.862-9.223,10.311
	c-2.252,2.537-4.489,5.088-6.736,7.633c-2.216,2.518-4.297,5.176-6.691,7.516c-3.549,3.477-7.83,5.565-12.938,5.329
	c-3.276-0.151-6.274-1.3-8.975-3.175c-5.566-3.876-9.315-9.305-12.732-15c-4.374-7.301-7.734-15.077-10.606-23.064
	c-1.989-5.524-3.988-11.051-5.721-16.653c-1.887-6.089-3.544-12.249-5.172-18.414c-1.232-4.649-2.323-9.337-3.364-14.035
	c-1.184-5.341-2.32-10.696-3.324-16.073c-0.678-3.631-1.069-7.315-1.617-10.969c-0.74-4.93-0.875-9.9-0.605-14.847
	c0.239-4.458,0.878-8.901,1.513-13.329c0.88-6.125,2.9-11.905,5.802-17.364c1.78-3.344,3.982-6.384,6.534-9.208
	c4.19-4.638,9.261-7.988,14.903-10.505c3.94-1.758,8.105-2.812,12.35-3.642c6.3-1.226,12.656-1.176,19.013-1.046
	c2.779,0.059,5.549,0.562,8.325,0.841c5.979,0.593,11.838,1.853,17.623,3.403c4.219,1.131,8.351,2.599,12.53,3.87
	c0.417,0.126,1.032,0.115,1.378-0.107c5.667-3.701,11.857-6.143,18.447-7.54c2.5-0.529,5.083-0.763,7.639-0.926
	c3.105-0.194,6.241-0.379,9.34-0.197c3.727,0.214,7.442,0.762,11.146,1.269c1.801,0.248,3.555,0.869,5.355,1.038
	c0.866,0.082,1.78-0.545,2.691-0.759c4.652-1.077,9.284-2.272,13.979-3.119c3.492-0.63,7.064-0.928,10.613-1.13
	c3.967-0.228,7.955-0.394,11.914-0.203c5.006,0.242,9.977,0.954,14.881,2.095c6.081,1.415,11.908,3.468,17.452,6.32
	c4.143,2.135,8.077,4.604,11.624,7.642c2.322,1.994,4.702,3.96,6.798,6.182c2.587,2.739,5.226,5.476,6.851,8.983
	c1.225,2.646,2.096,5.386,2.338,8.28c0.298,3.603,0.66,7.217,0.63,10.826c-0.031,3.448-0.503,6.893-0.835,10.336
	c-0.763,7.841-2.465,15.514-4.537,23.085c-1.707,6.252-3.709,12.437-5.875,18.551c-1.994,5.633-4.298,11.163-6.623,16.672
	c-1.719,4.072-3.572,8.103-5.58,12.041c-3.809,7.458-7.769,14.841-12.35,21.873c-0.791,1.212-1.542,2.456-2.312,3.696
	c2,1.347,4.264,1.822,6.542,2.07c2.169,0.233,4.379,0.377,6.544,0.214c3.469-0.259,6.925-0.754,10.373-1.235
	c3.414-0.478,6.759-1.448,10.269-1.192c3.499,0.256,6.007,2.917,5.769,6.196c-0.152,2.075-1.105,3.855-2.483,5.377
	c-6.511,7.184-14.685,11.537-24.033,13.684c-3.552,0.814-7.214,1.234-10.851,1.574c-3.096,0.287-6.232,0.335-9.34,0.22
	c-2.284-0.085-4.548-0.608-6.883-0.945c-0.236,2.135-0.458,4.359-0.729,6.575l-1.088,8.503c-0.329,2.694-0.585,5.399-0.926,8.095
	c-0.332,2.615-0.745,5.217-1.094,7.83c-0.323,2.432-0.562,4.879-0.928,7.309c-0.555,3.725-1.086,7.457-1.814,11.152
	c-0.872,4.415-2.205,8.69-4.391,12.676c-2.66,4.863-6.432,8.566-11.235,11.309c-4.95,2.826-10.364,4.298-15.846,5.529
	c-3.888,0.875-7.884,1.016-11.818,0.658c-6.82-0.615-12.642-3.532-17.044-8.822c-4.199-5.049-7.042-10.831-8.058-17.381
	c-0.489-3.114-0.838-6.253-1.114-9.392C168.609,241.706,168.401,238.207,168.238,234.706z M175.905,189.836
	c0.042,2.334-0.2,4.668-0.188,7.002c0.047,10.865,0.126,21.732,0.219,32.6c0.017,1.775,0.104,3.556,0.23,5.328
	c0.267,3.712,0.532,7.428,0.892,11.129c0.259,2.629,0.61,5.25,1.024,7.86c0.59,3.692,2.272,6.983,4.18,10.131
	c1.643,2.706,3.782,5.001,6.598,6.587c4.787,2.691,9.937,2.916,15.129,1.926c3.507-0.666,6.955-1.743,10.357-2.854
	c3.358-1.095,6.394-2.881,8.938-5.348c2.388-2.312,4.081-5.133,5.224-8.246c2.213-6.035,2.907-12.395,3.822-18.7
	c0.342-2.362,0.641-4.73,0.953-7.096c0.357-2.691,0.717-5.38,1.061-8.071c0.258-2.009,0.488-4.014,0.733-6.02
	c0.352-2.88,0.72-5.757,1.055-8.637c0.256-2.228,0.47-4.464,0.7-6.697c0.293-2.854,0.605-5.701,0.861-8.561
	c0.191-2.166,0.111-4.373,0.497-6.503c0.706-3.901,2.552-7.22,6.011-9.368c1.445-0.895,3.082-1.485,4.686-2.245l-0.275-0.419
	c-1.482-1.924-3.002-3.816-4.455-5.763c-2.284-3.054-3.927-6.46-5.578-9.883c-1.562-3.246-3.476-6.317-5.121-9.526
	c-2.871-5.597-5.797-11.18-8.443-16.88c-3.326-7.172-5.948-14.591-6.771-22.534c-0.352-3.358-0.442-6.716,0.241-10.043
	c1.089-5.316,3.862-9.473,8.53-12.325c4.332-2.644,9.154-3.499,14.096-3.766c3.066-0.166,6.151-0.031,9.332-0.031l-0.104-0.537
	c-1.98-4.14-3.828-8.35-5.996-12.389c-3.055-5.704-6.97-10.845-11.323-15.618c-3.224-3.53-6.72-6.803-10.547-9.703
	c-3.763-2.849-7.729-5.395-11.962-7.473c-5.045-2.484-10.305-4.402-15.817-5.625c-5.302-1.176-10.632-1.896-16.07-1.955
	c-4.635-0.05-9.242,0.164-13.759,1.207c-6.818,1.578-13.053,4.385-18.473,8.93c-3.029,2.54-5.676,5.389-7.985,8.562
	c-2.72,3.727-4.908,7.76-6.781,11.981c-2.571,5.796-4.334,11.824-5.543,18.022c-0.602,3.094-1.074,6.207-1.555,9.32
	c-0.169,1.094-0.18,2.205-0.281,3.457l2.059-1.071l2.008-0.9c6.798-3.108,13.837-5.108,21.403-4.88
	c3.218,0.096,6.289,0.734,9.152,2.143c5.484,2.706,8.691,7.304,10.086,13.12c0.962,4.017,1.623,8.111,2.264,12.198
	c0.5,3.189,1.015,6.413,1.071,9.63c0.082,4.703-0.155,9.416-0.411,14.116c-0.216,4.005-1.052,7.945-2.453,11.683
	c-2.542,6.795-5.377,13.48-8.024,20.236c-0.875,2.233-1.547,4.542-2.371,6.998l3.341,0.003c0.405,0.008,0.818,0.02,1.209,0.113
	c3.041,0.717,5.681,2.095,7.844,4.435C174.316,181.991,175.829,185.625,175.905,189.836L175.905,189.836z M117.835,157.618
	c-1.727-4.089-2.765-8.356-3.077-12.763c-0.292-4.146,0.2-8.269,0.627-12.397c0.411-3.997,0.759-8.013,0.877-12.023
	c0.2-6.601-0.245-13.185-0.56-19.78c-0.188-3.926,0.267-7.9,0.616-11.835c0.315-3.544,0.709-7.096,1.381-10.589
	c1.122-5.861,2.616-11.638,4.739-17.238c2.011-5.31,4.328-10.477,7.591-15.131c2.242-3.195,4.778-6.173,7.217-9.295l-0.726-0.259
	c-7.939-2.52-16.012-4.495-24.317-5.353c-3.923-0.408-7.864-0.644-11.798-0.88c-1.209-0.07-2.436,0.093-3.648,0.208
	c-3.001,0.29-6.041,0.402-8.994,0.965c-5.026,0.956-9.85,2.565-14.313,5.183c-4.011,2.352-7.377,5.386-10.198,9.031
	c-3.113,4.024-5.214,8.575-6.719,13.424c-1.778,5.724-2.627,11.616-2.855,17.559c-0.2,5.211-0.298,10.451,0.602,15.643
	c0.667,3.861,1.114,7.768,1.851,11.618c1.007,5.246,2.087,10.482,3.335,15.674c1.781,7.436,3.563,14.878,5.676,22.224
	c2.02,7.034,4.295,14.006,6.77,20.897c2.02,5.623,4.357,11.141,6.818,16.583c1.603,3.547,3.543,6.961,5.58,10.28
	c2.163,3.526,4.626,6.873,7.962,9.433c4.216,3.229,7.476,3.732,11.762,0.186c1.834-1.516,3.384-3.395,4.981-5.181
	c2.534-2.835,4.981-5.754,7.507-8.604c3.214-3.625,6.469-7.214,9.7-10.828c0.684-0.762,1.344-1.549,2.008-2.32l-1.105-0.964
	C123.117,167.226,120.006,162.754,117.835,157.618z M239.732,49.61c2.627,3.08,5.169,6.249,7.515,9.545
	c4.539,6.379,8.167,13.264,10.842,20.632c1.182,3.249,2.126,6.528,1.704,10.08c-0.292,2.489-0.272,5.012-0.488,7.515
	c-0.184,2.081-0.516,4.151-0.783,6.227c-0.404,3.127-0.989,6.249-1.164,9.391c-0.168,2.993,0.009,6.013,0.197,9.009
	c0.188,3.046,0.6,6.078,0.877,9.115c0.315,3.451,0.743,6.893,0.839,10.35c0.079,2.835-0.175,5.684-0.419,8.519
	c-0.296,3.412-1.159,6.713-2.447,9.877c-0.908,2.233-1.991,4.393-3.012,6.626l0.41,0.433l0.625,0.484l0.633-1.125
	c5.31-8.373,10.034-17.066,14.121-26.092c2.639-5.811,5.096-11.706,7.465-17.634c3.687-9.228,6.609-18.711,8.861-28.389
	c1.013-4.343,1.789-8.752,2.475-13.163c0.538-3.448,0.982-6.936,1.084-10.415c0.104-3.69-0.1-7.408-0.439-11.087
	c-0.256-2.779-0.941-5.574-2.68-7.838c-2.802-3.637-5.822-7.113-9.537-9.866c-3.131-2.315-6.253-4.697-9.607-6.643
	c-5.324-3.091-11.088-5.145-17.109-6.545c-5.881-1.37-11.832-1.96-17.822-2.087c-3.533-0.076-7.082,0.304-10.605,0.639
	c-3.195,0.298-6.371,0.81-9.586,1.231c3.451,1.941,6.857,3.668,10.063,5.701C228.493,38.376,234.545,43.521,239.732,49.61
	L239.732,49.61z M152.038,169.318c2.18-6.975,5.152-13.641,8.03-20.34c2.337-5.437,3.611-11.16,4.036-17.043
	c0.211-2.9,0.155-5.836,0.012-8.744c-0.161-3.229-0.417-6.472-0.889-9.669c-0.604-4.089-1.291-8.182-2.258-12.195
	c-1.049-4.343-3.693-7.369-8.227-8.485c-2.759-0.678-5.504-0.65-8.297-0.208c-6.814,1.072-13.053,3.583-18.863,7.262
	c-1.17,0.74-1.817,1.338-1.612,3.012c0.428,3.555,0.521,7.166,0.503,10.752c-0.022,5.077-0.239,10.153-0.43,15.227
	c-0.062,1.651-0.301,3.299-0.481,4.944c-0.27,2.52-0.796,5.037-0.779,7.554c0.017,2.593,0.281,5.246,0.911,7.757
	c2,7.965,6.229,14.479,13.168,19.077c4.267,2.83,8.986,4.252,14.169,4.525C151.375,171.554,151.692,170.432,152.038,169.318
	L152.038,169.318z M143.893,101.005c-0.914-1.916-0.391-3.504,1.724-4.241c0.518-0.177,1.046-0.374,1.581-0.425
	c0.74-0.073,1.485-0.02,2.23-0.02c2.686,0.017,5.268,0.391,7.481,2.095c1.423,1.097,1.806,2.545,0.883,4.042
	c-1.308,2.118-3.296,3.181-5.743,3.383C148.199,106.158,145.496,104.363,143.893,101.005L143.893,101.005z M250.697,100.305
	l0.875-7.664c0.127-1.024-0.41-1.305-1.271-1.331c-2.708-0.073-5.414-0.171-8.122-0.216c-3.049-0.057-6.021,0.433-8.845,1.592
	c-3.134,1.291-5.519,3.355-6.494,6.767c-0.729,2.542-0.923,5.083-0.664,7.74c0.391,4.053,1.291,7.985,2.709,11.756
	c1.895,5.042,3.875,10.083,6.246,14.915c3.209,6.539,6.837,12.873,10.246,19.313c0.908,1.718,1.679,3.516,2.627,5.521
	c1.988-4.208,2.955-8.421,3.064-12.763c0.094-3.659-0.196-7.327-0.41-10.986c-0.132-2.239-0.449-4.466-0.666-6.699
	c-0.301-3.111-0.763-6.224-0.836-9.343c-0.07-3.172,0.154-6.362,0.425-9.531C249.834,106.343,250.335,103.331,250.697,100.305
	L250.697,100.305z M244.598,97.847c-1.007,2.776-3.156,4.346-5.945,4.804c-2.6,0.431-4.877-0.528-6.57-2.604
	c-1.207-1.477-0.746-3.223,1.062-4.225c2.076-1.147,4.357-1.437,7.049-1.611c0.734,0.132,1.83,0.248,2.877,0.542
	C244.586,95.181,245.148,96.328,244.598,97.847z M164.166,183.355c-1.485-1.215-3.454-1.285-4.866,0.048
	c-1.755,1.659-3.299,3.555-4.843,5.423c-1.78,2.16-3.457,4.404-5.752,6.077c-3.344,2.433-7.25,3.44-11.171,4.394
	c-3.116,0.759-6.25,1.465-9.374,2.19l-0.04,0.405c0.928,0.428,1.825,0.965,2.795,1.271c4.768,1.508,9.619,2.261,14.659,1.834
	c3.634-0.312,7.099-1.105,10.381-2.661c4.52-2.14,7.999-5.535,10.955-9.478c0.495-0.658,0.72-1.632,0.776-2.481
	C167.887,187.38,166.365,185.149,164.166,183.355L164.166,183.355z M251.198,182.057c-2.337,0.784-4.238,1.979-4.804,4.508
	c-0.385,1.71-0.525,3.479-0.675,5.23c-0.028,0.311,0.356,0.878,0.649,0.957c1.801,0.475,3.611,1.035,5.451,1.201
	c2.264,0.205,4.564,0.141,6.843,0.027c2.458-0.123,4.933-0.283,7.357-0.688c5.706-0.962,11.233-2.521,16.138-5.761
	c1.771-1.166,3.521-2.359,5.282-3.546l-0.146-0.251c-1.876,0.279-3.746,0.619-5.63,0.819c-3.837,0.41-7.676,0.844-11.526,1.065
	c-1.858,0.107-3.743-0.25-5.616-0.402c-3.145-0.256-6.216-0.953-8.873-2.635C254.115,181.614,252.832,181.508,251.198,182.057
	L251.198,182.057z"/>
<path fill="#333333" d="M7.974,290.205c3.074-0.512,7.093-0.951,12.214-0.951c6.286,0,10.896,1.463,13.821,4.096
	c2.706,2.34,4.314,5.923,4.314,10.312c0,4.461-1.319,7.971-3.806,10.531c-3.363,3.582-8.848,5.41-15.063,5.41
	c-1.901,0-3.656-0.072-5.116-0.438v19.746H7.974V290.205L7.974,290.205z M14.338,313.971c1.39,0.365,3.145,0.512,5.265,0.512
	c7.675,0,12.358-3.729,12.358-10.529c0-6.509-4.607-9.653-11.627-9.653c-2.779,0-4.899,0.22-5.997,0.513V313.971L14.338,313.971z
	 M76.86,320.918c0,13.089-9.07,18.795-17.626,18.795c-9.579,0-16.965-7.02-16.965-18.211c0-11.846,7.751-18.793,17.55-18.793
	C69.986,302.707,76.86,310.096,76.86,320.918z M48.78,321.283c0,7.751,4.461,13.602,10.75,13.602
	c6.143,0,10.747-5.777,10.747-13.748c0-5.996-2.995-13.602-10.603-13.602S48.78,314.556,48.78,321.283z M84.097,332.325
	c1.901,1.243,5.265,2.56,8.482,2.56c4.68,0,6.874-2.34,6.874-5.266c0-3.07-1.825-4.753-6.581-6.508
	c-6.362-2.268-9.36-5.777-9.36-10.018c0-5.704,4.607-10.385,12.212-10.385c3.583,0,6.73,1.023,8.705,2.194l-1.609,4.68
	c-1.389-0.878-3.949-2.048-7.239-2.048c-3.803,0-5.923,2.194-5.923,4.826c0,2.926,2.124,4.242,6.73,5.997
	c6.143,2.34,9.287,5.411,9.287,10.676c0,6.216-4.827,10.604-13.236,10.604c-3.875,0-7.459-0.95-9.945-2.413L84.097,332.325
	L84.097,332.325z M121.686,293.347v10.164h9.211v4.899h-9.211v19.086c0,4.387,1.24,6.873,4.826,6.873
	c1.682,0,2.925-0.219,3.729-0.438l0.292,4.826c-1.24,0.512-3.217,0.877-5.701,0.877c-2.999,0-5.414-0.951-6.95-2.705
	c-1.826-1.902-2.486-5.047-2.486-9.215V308.41h-5.484v-4.899h5.484v-8.482L121.686,293.347L121.686,293.347z M168.193,303.514
	c-0.149,2.56-0.293,5.411-0.293,9.726v20.548c0,8.117-1.608,13.09-5.045,16.164c-3.437,3.217-8.409,4.241-12.87,4.241
	c-4.241,0-8.921-1.024-11.776-2.925l1.609-4.9c2.34,1.463,5.996,2.779,10.384,2.779c6.581,0,11.407-3.437,11.407-12.357v-3.949
	h-0.146c-1.975,3.291-5.777,5.923-11.261,5.923c-8.775,0-15.064-7.458-15.064-17.261c0-11.992,7.825-18.793,15.941-18.793
	c6.146,0,9.509,3.218,11.044,6.143h0.146l0.292-5.338H168.193z M161.539,317.48c0-1.097-0.073-2.047-0.365-2.925
	c-1.17-3.729-4.314-6.801-8.995-6.801c-6.146,0-10.53,5.192-10.53,13.382c0,6.947,3.51,12.725,10.457,12.725
	c3.949,0,7.532-2.486,8.921-6.582c0.366-1.097,0.515-2.34,0.515-3.437v-6.362H161.539z M178.135,314.556
	c0-4.168-0.073-7.751-0.292-11.042h5.634l0.217,6.947h0.292c1.608-4.754,5.484-7.752,9.799-7.752c0.731,0,1.24,0.074,1.825,0.22
	v6.069c-0.655-0.146-1.316-0.219-2.191-0.219c-4.533,0-7.754,3.437-8.629,8.263c-0.146,0.878-0.292,1.901-0.292,2.998v18.866h-6.362
	V314.556L178.135,314.556z M204.902,322.38c0.146,8.702,5.701,12.285,12.135,12.285c4.61,0,7.387-0.804,9.799-1.828l1.098,4.606
	c-2.268,1.023-6.143,2.194-11.773,2.194c-10.896,0-17.404-7.167-17.404-17.843s6.289-19.088,16.6-19.088
	c11.555,0,14.625,10.164,14.625,16.672c0,1.316-0.146,2.34-0.219,2.998h-24.859V322.38z M223.768,317.773
	c0.07-4.096-1.684-10.457-8.921-10.457c-6.508,0-9.36,5.996-9.874,10.457H223.768z M237.293,331.154
	c2.853,1.756,7.021,3.219,11.408,3.219c6.508,0,10.311-3.438,10.311-8.41c0-4.606-2.633-7.239-9.287-9.799
	c-8.043-2.852-13.016-7.02-13.016-13.967c0-7.678,6.361-13.382,15.941-13.382c5.045,0,8.701,1.171,10.895,2.413l-1.754,5.191
	c-1.609-0.877-4.9-2.34-9.361-2.34c-6.727,0-9.286,4.022-9.286,7.387c0,4.606,2.995,6.873,9.799,9.506
	c8.336,3.221,12.577,7.239,12.577,14.479c0,7.605-5.631,14.187-17.258,14.187c-4.752,0-9.944-1.39-12.58-3.145L237.293,331.154
	L237.293,331.154z M314.879,346.146c-6.654-1.755-13.162-3.729-18.866-5.704c-1.023-0.365-2.048-0.73-2.998-0.73
	c-11.7-0.439-21.718-9.068-21.718-24.936c0-15.795,9.652-25.96,22.961-25.96c13.382,0,22.087,10.384,22.087,24.937
	c0,12.65-5.851,20.767-14.04,23.619v0.292c4.899,1.243,10.237,2.413,14.405,3.145L314.879,346.146z M309.614,314.044
	c0-9.872-5.116-20.039-15.575-20.039c-10.75,0-16.016,9.944-15.941,20.624c-0.074,10.457,5.703,19.89,15.648,19.89
	C303.913,334.519,309.614,325.305,309.614,314.044z M324.602,289.62h6.365v43.948h21.06v5.338h-27.425V289.62z"/>
</svg>
