<?xml version="1.0" encoding="utf-8"?>
<!-- Generator: Adobe Illustrator 14.0.0, SVG Export Plug-In . SVG Version: 6.00 Build 43363)  -->
<!DOCTYPE svg PUBLIC "-//W3C//DTD SVG 1.1//EN" "http://www.w3.org/Graphics/SVG/1.1/DTD/svg11.dtd">
<svg version="1.1" id="Layer_1" xmlns="http://www.w3.org/2000/svg" xmlns:xlink="http://www.w3.org/1999/xlink" x="0px" y="0px"
	 width="360px" height="360px" viewBox="0 0 360 360" enable-background="new 0 0 360 360" xml:space="preserve">
<g>
	<path fill="#333333" d="M53.218,293.996v60.379h15.401V338.65l14.015,14.015h23.63l-18.743-18.743c0,0,13.486-0.219,14.504-19.715
		c0-17.891-13.5-20.211-29.09-20.211H53.218z M69.354,310.377h13.281v10.754H69.354V310.377z"/>
	<path fill="#333333" d="M136.007,294.24c-8.429-0.047-20.124,0.734-20.124,16.625v41.963h15.806v-10.266h15.32v10.021h15.888
		v-43.999c0-13.802-15.333-14.344-23.549-14.344L136.007,294.24L136.007,294.24z M131.932,309.395h14.83v16.543h-14.83V309.395z"/>
	<path fill="#333333" d="M178.734,294.277h16.354v57.761h-16.354V294.277z"/>
	<path fill="#333333" d="M212.215,295.045v57.761h39.36v-15.334h-23.257v-42.68L212.215,295.045L212.215,295.045z"/>
	<path fill="#333333" d="M303.711,294.531v15.589h-26.325v5.622h11.247c0,0,18.149-0.253,18.149,18.146
		c0,18.402-8.438,19.426-25.561,19.426h-20.7v-14.057h23.77c7.154,0,7.551-2.332,7.551-4.362c0-2.028-3.656-2.97-11.098-2.97
		c-7.442,0-21.243-3.659-21.243-17.969c0-14.313,7.157-19.682,21.468-19.682C295.279,294.277,303.711,294.531,303.711,294.531z"/>
</g>
<path fill="#333333" d="M282.814,30.426c-27.42-13.531-55.502-14.906-84.258-4.745c-26.46,9.354-47.567,26.092-63.256,48.884
	c-26.55,38.576-45.833,80.668-56.646,126.388c-5.529,23.406-9.115,45.855-8.15,70.023c0.079,1.963,0.368,4.648,0.562,4.648h135.602
	c-0.385,0-0.645-0.811-0.979-1.668c-7.133-18.211-12.783-36.256-16.687-55.42c-5.61-27.518-8.547-54.959-2.753-82.733
	c8.111-38.894,30.281-66.662,67.654-81.205c21.17-8.247,41.26-5.749,58.885,9.717c0.163,0.143,0.492,0.135,0.923,0.205l5.766-8.682
	C308.379,45.27,296.185,37.024,282.814,30.426L282.814,30.426z M70.501,211.371l-26.578-2.009l-3.009,25.724l25.006,3.004
	L70.501,211.371z M93.006,132.567c-8.125-3.176-15.693-6.14-23.521-9.206c-2.61,7.419-5.046,14.324-7.605,21.586
	c8.209,2.632,15.941,5.11,23.974,7.681L93.006,132.567z M204.024,253.105c8.03,0.596,16.076,1.012,24.938,1.527
	c-3.221-6.691-6.075-12.741-9.073-18.723c-0.326-0.65-1.435-1.277-2.185-1.289c-6.812-0.098-13.633-0.059-20.872-0.059
	c1.628,5.906,3.048,11.349,4.708,16.721C201.789,252.093,203.125,253.037,204.024,253.105L204.024,253.105z M132.871,67.188
	l-17.868-11.833c-4.79,5.353-9.408,10.513-14.287,15.961l18.371,12.347L132.871,67.188z M189.779,187.073
	c-0.025,0.724,0.624,1.87,1.254,2.157c6.438,2.892,12.94,5.647,20.022,8.699c-0.296-5.597-0.495-10.277-0.827-14.945
	c-0.062-0.838-0.458-2.051-1.08-2.396c-5.908-3.274-11.899-6.396-18.455-9.872C190.333,176.704,189.971,181.881,189.779,187.073
	L189.779,187.073z M184.486,24.95l-12.235-13.882l-16.844,8.755l12.251,14.926L184.486,24.95z M192.158,135.416
	c-0.363,0.844,0.121,2.622,0.838,3.271c4.886,4.407,9.939,8.624,15.559,13.436c1.289-5.392,2.501-10.195,3.53-15.033
	c0.183-0.864-0.07-2.287-0.669-2.765c-4.374-3.527-8.885-6.879-13.562-10.452C195.798,127.955,193.807,131.611,192.158,135.416
	L192.158,135.416z M220.126,17.651c6.243,0.174,12.496,0.096,19.091,0.096c-0.658-4.59-0.97-8.072-1.754-11.438
	c-0.234-0.999-1.747-2.337-2.763-2.419c-6.258-0.509-12.544-0.703-19.435-1.032c0.92,4.632,1.62,8.716,2.61,12.729
	C218.09,16.442,219.333,17.634,220.126,17.651L220.126,17.651z M227.73,97.791c0.318-0.596,0.4-1.682,0.064-2.205
	c-3.07-4.798-6.254-9.526-9.557-14.496l-10.695,9.818l14.791,16.389C224.316,103.837,226.094,100.851,227.73,97.791z M239.262,65.16
	c2.273,4.216,4.332,8.038,6.388,11.866c9.993-5.473,10.952-7.461,7.411-15.351L239.262,65.16z M287.08,28.606
	c4.16,2.565,8.551,4.748,13.014,7.155l2.986-4.652L286.428,18.92c-0.23,2.478-0.579,4.216-0.489,5.923
	C286.009,26.15,286.23,28.08,287.08,28.606L287.08,28.606z M298.125,61.504c-8.438-0.987-11.25-1.963-16.875-2.976v7.633
	c5.625,0.487,8.438,0.954,16.875,1.443V61.504z"/>
</svg>
