<?xml version="1.0" encoding="utf-8"?>
<!-- Generator: Adobe Illustrator 14.0.0, SVG Export Plug-In . SVG Version: 6.00 Build 43363)  -->
<!DOCTYPE svg PUBLIC "-//W3C//DTD SVG 1.1//EN" "http://www.w3.org/Graphics/SVG/1.1/DTD/svg11.dtd">
<svg version="1.1" id="Layer_1" xmlns="http://www.w3.org/2000/svg" xmlns:xlink="http://www.w3.org/1999/xlink" x="0px" y="0px"
	 width="360px" height="360px" viewBox="0 0 360 360" enable-background="new 0 0 360 360" xml:space="preserve">
<path fill="#333333" d="M232.082,153.717c-36.338,23.417-72.343,46.623-109.299,70.433c55.344,7.558,109.702,14.977,165.135,22.545
	C269.035,215.249,250.636,184.612,232.082,153.717L232.082,153.717z M303.545,50.096c-4.88,7.324-9.768,14.645-14.639,21.974
	c-16.734,25.175-33.464,50.347-50.178,75.53c-0.932,1.406-2.139,2.52-0.828,4.68c16.156,26.671,32.178,53.426,48.24,80.151
	c2.534,4.222,5.1,8.427,8.379,12.476l9.74-194.599L303.545,50.096z M83.05,133.256c0.756,0.717,2.644,1.13,3.519,0.7
	c15.494-7.616,31.086-15.061,46.243-23.304c4.938-2.683,8.735-7.501,12.997-11.405c14.099-12.929,28.173-25.886,42.246-38.846
	c0.863-0.796,1.879-1.564,2.396-2.568c5.055-9.88,10.018-19.806,15.162-30.023c-6.134-2.298-11.947-4.556-17.831-6.609
	c-0.799-0.278-2.054,0.275-2.925,0.759c-13.621,7.611-27.498,14.813-40.688,23.113c-6.601,4.151-11.979,10.269-17.823,15.601
	c-9.413,8.595-18.821,17.21-28.102,25.957c-2.464,2.32-4.708,4.972-6.624,7.762c-6.351,9.242-12.504,18.616-18.948,28.26
	C76.278,126.382,79.549,129.943,83.05,133.256z M139.674,120.62c-7.704,32.561-15.37,64.935-23.285,98.375
	c37.122-23.917,73.387-47.284,109.409-70.495C197.131,139.219,168.553,129.968,139.674,120.62L139.674,120.62z M201.091,65.942
	l31.556,76.759c20.6-30.94,40.787-61.271,61.434-92.292C262.719,55.648,232.104,60.761,201.091,65.942L201.091,65.942z
	 M140.968,113.959c28.243,9.172,55.926,18.158,84.409,27.402c-10.578-25.771-20.793-50.639-31.222-76.036L140.968,113.959
	L140.968,113.959z M84.217,152.244l-29.542,70.619c18.931-0.56,37.286-1.103,56.264-1.662
	C102.029,198.205,93.293,175.66,84.217,152.244L84.217,152.244z M111.608,204.823l0.698-0.151
	c6.752-28.092,13.606-55.989,20.506-85.174c-15.384,7.993-30.06,15.621-45.141,23.459
	C95.363,162.959,103.57,184.053,111.608,204.823z M282.727,45.855c-8.986-2.379-17.963-4.77-26.958-7.132
	c-12.917-3.395-25.847-6.753-38.759-10.182c-1.611-0.427-2.781-0.706-3.729,1.238c-4.562,9.349-9.271,18.63-13.905,27.942
	c-0.143,0.29-0.115,0.667-0.225,1.384c27.979-4.238,55.771-8.451,83.559-12.662L282.727,45.855z M230.605,24.587
	c24.129,6.677,48.257,13.351,73.229,20.258l-12.1-34.476c-20.502,4.548-40.761,9.04-61.02,13.531L230.605,24.587z M252.773,247.781
	l-60.078-8.201c-24.955-3.406-49.865-7.155-74.877-10.038c-9.07-1.044-18.382-0.081-27.579,0.073
	c-7.558,0.129-15.115,0.416-22.669,0.655c-0.779,0.022-1.555,0.181-2.329,1.016c62.465,5.776,124.936,11.551,187.399,17.331
	L252.773,247.781L252.773,247.781z M55.907,201.308c8.055-18.678,16.065-37.37,24.148-56.031c0.81-1.876,0.751-3.145-0.833-4.649
	c-3.384-3.221-6.522-6.688-10.221-10.53l-14.74,72.762l0.542,0.26C55.178,202.518,55.631,201.955,55.907,201.308z M214.565,19.657
	c13.576-3.504,27.349-6.238,41.04-9.295c0.883-0.2,1.75-0.492,2.621-0.743l-0.132-0.669l-58.826,7.912
	C204.795,19.277,209.051,21.08,214.565,19.657L214.565,19.657z M87.117,307.75v24.037H73.831v-62.653h18.256
	c8.511,0,14.811,1.55,18.897,4.649c4.087,3.1,6.131,7.807,6.131,14.118c0,3.688-1.015,6.967-3.046,9.835
	c-2.028,2.872-4.896,5.125-8.615,6.754l18.43,27.295h-14.743l-14.954-24.039h-7.071V307.75z M87.117,296.949h4.286
	c4.196,0,7.298-0.703,9.298-2.101c1.997-1.401,2.998-3.601,2.998-6.599c0-2.973-1.021-5.084-3.065-6.342
	c-2.042-1.258-5.206-1.887-9.49-1.887h-4.03v16.928H87.117z M164.68,331.787l-1.755-6.128h-0.686
	c-1.401,2.23-3.386,3.948-5.954,5.164c-2.574,1.215-5.504,1.819-8.787,1.819c-5.63,0-9.872-1.504-12.729-4.52
	s-4.284-7.35-4.284-13.005v-31.241h13.07v27.984c0,3.457,0.616,6.05,1.845,7.779c1.227,1.729,3.181,2.59,5.867,2.59
	c3.659,0,6.3-1.223,7.928-3.662c1.628-2.443,2.444-6.49,2.444-12.146V283.88h13.069v47.911H164.68V331.787z M215.078,282.975
	c5.655,0,10.085,2.21,13.289,6.623c3.197,4.412,4.795,10.463,4.795,18.148c0,7.912-1.651,14.041-4.947,18.381
	c-3.303,4.345-7.793,6.514-13.48,6.514c-5.628,0-10.041-2.045-13.241-6.132h-0.899l-2.184,5.273h-9.986v-66.676h13.069v15.514
	c0,1.972-0.175,5.127-0.518,9.473h0.518C204.547,285.351,209.078,282.975,215.078,282.975L215.078,282.975z M210.875,293.434
	c-3.225,0-5.582,0.993-7.067,2.979c-1.485,1.988-2.261,5.266-2.314,9.838v1.412c0,5.145,0.763,8.828,2.29,11.059
	c1.529,2.228,3.951,3.342,7.267,3.342c2.683,0,4.817-1.238,6.404-3.707c1.587-2.47,2.38-6.064,2.38-10.777
	c0-4.714-0.803-8.252-2.402-10.609C215.834,294.612,213.648,293.434,210.875,293.434L210.875,293.434z M236.247,283.877h14.313
	l9.041,26.955c0.771,2.343,1.303,5.113,1.584,8.313h0.259c0.312-2.942,0.925-5.715,1.839-8.313l8.871-26.955h14.012l-20.27,54.039
	c-1.855,4.998-4.506,8.742-7.945,11.228c-3.445,2.486-7.465,3.727-12.065,3.727c-2.259,0-4.472-0.241-6.641-0.729v-10.37
	c1.572,0.369,3.285,0.555,5.142,0.555c2.312,0,4.334-0.706,6.063-2.121c1.729-1.411,3.079-3.546,4.048-6.403l0.77-2.36
	L236.247,283.877L236.247,283.877z"/>
</svg>
