<?xml version="1.0" encoding="utf-8"?>
<!-- Generator: Adobe Illustrator 14.0.0, SVG Export Plug-In . SVG Version: 6.00 Build 43363)  -->
<!DOCTYPE svg PUBLIC "-//W3C//DTD SVG 1.1//EN" "http://www.w3.org/Graphics/SVG/1.1/DTD/svg11.dtd">
<svg version="1.1" id="Layer_1" xmlns="http://www.w3.org/2000/svg" xmlns:xlink="http://www.w3.org/1999/xlink" x="0px" y="0px"
	 width="360px" height="360px" viewBox="0 0 360 360" enable-background="new 0 0 360 360" xml:space="preserve">
<path fill="#333333" d="M3.428,157.939c0,1.977,0.583,3.282,0.909,4.55c2.126,8.249,6.696,15.328,12.119,21.786
	c7.723,9.202,17.182,16.61,26.871,23.576c8.404,6.042,16.979,11.948,25.417,17.944c1.448,1.029,2.818,2.214,4.39,3.476
	c-1.353,0.732-2.478,1.376-3.647,1.969c-11.135,5.648-21.848,11.979-31.722,19.648c-5.952,4.624-11.706,9.537-15.77,15.959
	c-6.539,10.327-8.854,21.33-3.979,33.077c1.423,3.432,3.594,6.396,6.657,8.587c0.993,0.709,2.106,1.412,3.268,1.688
	c2.976,0.7,6.007,1.158,9.02,1.713l8.53-0.006c9.433-0.841,18.02-4.072,25.779-9.428c12.128-8.369,20.298-19.592,23.811-33.994
	c2.554-10.469,2.658-20.947-0.352-31.368c-0.279-0.968-0.63-1.915-0.996-2.852c-0.366-0.937-0.796-1.849-1.302-3.015l19.338-11.121
	l0.29,0.248c-0.352,1.149-0.726,2.297-1.043,3.459c-2.298,8.393-3.825,16.932-3.277,25.641c0.585,9.281,3.175,17.97,8.609,25.724
	c4.393,6.272,14.861,6.505,19.53,0.211c1.657-2.235,3.263-4.573,4.469-7.067c3.153-6.512,6.072-13.138,9.084-19.719l0.526-1.203
	c-0.217,3.115-0.47,5.852-0.585,8.592c-0.18,4.277,0.07,8.53,1.533,12.6c1.251,3.482,3.38,6.084,7.369,6.542
	c2.728,0.312,4.902-0.937,6.908-2.521c3.133-2.472,5.678-5.525,7.568-8.996c5.346-9.818,10.836-19.578,15.682-29.645
	c5.242-10.887,9.827-22.092,14.695-33.165l0.805-1.963c1.15,4.52,1.951,8.946,3.428,13.138c1.717,4.862,3.84,9.609,6.151,14.225
	c1.095,2.18,0.968,3.595-0.548,5.423c-6.346,7.65-12.58,15.394-18.822,23.128c-1.381,1.707-2.756,3.445-3.906,5.31
	c-0.694,1.134-1.156,2.515-1.35,3.836c-0.374,2.526,1.188,4.962,3.89,5.544c2.47,0.531,5.099,0.729,7.616,0.543
	c8.711-0.642,16.619-3.699,23.611-8.879c9.059-6.711,11.967-15.869,9.773-26.723c-0.594-2.944-1.643-5.808-2.664-8.645
	c-0.458-1.28-0.489-2.178,0.346-3.37c7.242-10.341,13.43-21.313,19.185-32.538c0.228-0.441,0.462-0.883,0.86-1.355
	c1.865,9.703,4.672,19.055,9.701,27.54c-2.565,2.472-5.105,4.714-7.403,7.183c-5.06,5.439-9.446,11.346-11.736,18.549
	c-0.984,3.105-1.741,6.261-1.302,9.576c0.68,5.15,4.898,8.497,9.965,7.324c10.839-2.509,20.195-7.616,27.033-16.664
	c4.602-6.092,5.021-12.887,3.094-20.005c-0.529-1.935-1.156-3.839-1.831-6.059c2.675-0.829,5.282-1.825,7.979-2.44
	c14.003-3.195,27.854-2.639,41.349,2.418c7.878,2.953,14.243,7.895,18.018,15.668c4.609,9.504,2.062,18.521-6.896,24.528
	c-0.835,0.56-1.792,1.001-2.483,1.702c-0.425,0.43-0.681,1.291-0.577,1.884c0.06,0.347,0.974,0.779,1.499,0.773
	c2.945-0.022,5.333-1.566,7.625-3.153c5.743-3.974,9.934-9.32,10.837-16.359l0.177-0.529l-0.217-4.584
	c-0.087-0.265,0.065-0.525,0.046-0.726c-1.221-10.252-6.697-18.202-14.662-24.435c-9.225-7.215-20.118-10.185-31.638-10.654
	c-9.389-0.383-18.616,1.013-27.464,4.227c-2.522,0.914-5.023,1.998-7.56,3.019c-0.341-0.616-0.707-1.206-1.008-1.817
	c-2.604-5.332-5.76-10.428-6.457-16.543c-0.495-4.342-1.103-8.679-0.07-12.974c0.992-4.132,2.286-8.193,3.504-12.269
	c0.627-2.098,0.186-3.273-1.816-4.219c-0.697-0.329-1.457-0.616-2.211-0.726c-4.922-0.714-9.776-0.307-14.543,1.08
	c-1.688,0.492-2.914,1.438-3.288,3.305c-0.214,1.072-0.649,2.098-0.954,3.156c-1.245,4.396-2.129,8.876-4.143,13.064
	c-5.045,10.505-10.805,20.613-16.7,30.648c-0.639,1.082-1.311,2.146-2.115,3.459c-2.069-4.332-4.278-8.219-4.947-12.774
	c-0.757-5.153-1.353-10.297-0.07-15.409c0.954-3.814,2.2-7.558,3.347-11.321c0.543-1.789,0.293-2.728-1.327-3.67
	c-0.818-0.476-1.743-0.897-2.666-1.035c-5.104-0.756-10.134-0.36-15.058,1.232c-1.527,0.495-2.33,1.482-2.797,3.057
	c-1.372,4.646-2.542,9.405-4.469,13.823c-7.802,17.888-15.828,35.683-23.847,53.475c-1.674,3.715-3.634,7.301-5.521,10.918
	c-0.479,0.917-1.176,1.725-1.772,2.584c-0.478-0.564-0.664-0.953-0.661-1.341c0.014-2.286-0.259-4.641,0.177-6.852
	c1.319-6.688,2.838-13.339,4.438-19.966c1.322-5.473,2.86-10.896,4.326-16.332c0.492-1.82,0.501-3.521-0.807-5.051
	c-2.196-2.562-6.787-3.125-9.509-1.15l-1.204,0.68l0.233-1.94c0.574-4.159,0.689-8.306-0.453-12.403
	c-1.423-5.107-5.068-8.046-10.367-7.883c-2.47,0.076-5.062,0.498-7.349,1.397c-9.616,3.769-17.01,10.442-23.305,18.473
	c-0.571,0.729-1.325,1.392-2.129,1.839c-8.137,4.512-16.298,8.967-24.458,13.438l-9.082,4.976c-2.436-2.323-4.649-4.733-7.161-6.778
	c-7.669-6.255-15.463-12.355-23.186-18.54c-6.846-5.481-13.478-11.191-18.551-18.45c-3.774-5.4-6.208-11.309-6.441-17.986
	c-0.295-8.508,2.118-16.281,6.449-23.518c5.541-9.259,13.098-16.689,21.406-23.419c8.789-7.116,18.295-13.157,28.147-18.672
	c13.784-7.715,27.962-14.543,43.164-19.052c15.587-4.624,31.402-7.271,47.714-5.425c6.412,0.726,12.639,2.194,18.357,5.33
	c4.379,2.399,7.971,5.541,9.641,10.451c1.648,4.832,1.598,9.729,0.456,14.636c-2.32,9.939-7.763,18.132-14.611,25.453
	c-11.233,12.001-24.936,20.171-40.362,25.568c-8.902,3.114-18.059,5.068-27.464,5.859c-7.675,0.644-15.19-0.037-22.458-2.706
	c-4.812-1.769-9.003-4.475-12.373-8.401c-0.602-0.703-1.373-1.465-2.495-0.807c-1.1,0.647-1.293,1.693-0.925,2.753
	c0.616,1.761,1.184,3.594,2.143,5.169c2.411,3.952,5.926,6.817,9.796,9.275c7.434,4.728,15.742,6.317,24.356,6.686
	c13.072,0.565,25.827-1.387,38.402-4.894c17.952-5.006,33.562-13.849,46.08-27.799c10.423-11.616,17.868-24.725,19.462-40.554
	c0.779-7.726-0.051-15.294-3.667-22.342c-3.923-7.636-10.161-13.314-17.62-17.227c-10.862-5.695-22.584-9.011-34.684-9.011h-12.122
	c-14.653,0-28.82,4.199-42.59,9.208c-10.423,3.794-20.644,8.271-30.566,13.227c-21.608,10.797-41.732,23.816-58.261,41.718
	c-8.235,8.918-15.207,18.759-19.218,30.347c-1.173,3.392-2.287,7.028-3.125,10.536 M81.97,254.135
	c-0.937,12.541-6.621,22.708-15.91,30.943c-5.226,4.629-11.219,7.926-18.2,9.084c-2.531,0.419-5.122,0.521-7.577-0.529
	c-3.501-1.496-4.286-4.604-4.354-7.914c-0.104-5.275,1.744-10.046,4.278-14.586c3.308-5.917,8.156-10.428,13.334-14.641
	c8.156-6.641,17.004-12.26,26.066-17.564l0.683-0.281C81.692,243.821,82.358,248.932,81.97,254.135z M152.727,199.631
	c-0.661,4.006-1.488,8.014-2.658,11.895c-4.044,13.436-9.239,26.454-14.855,39.299c-1.038,2.377-2.548,4.545-3.862,6.798
	c-0.203,0.349-0.503,0.649-0.796,0.939c-1.625,1.606-3.167,1.521-3.988-0.579c-0.956-2.441-1.544-5.055-2.05-7.639
	c-0.34-1.736-0.259-3.559-0.365-5.336c0.109-12.639,3.965-24.125,10.507-34.818c2.697-4.41,5.633-8.611,10.119-11.402
	c1.378-0.857,2.925-1.547,4.486-1.985C151.656,196.13,153.124,197.234,152.727,199.631L152.727,199.631z M201.001,261.135
	l17.351-20.258C219.074,248.4,206.285,263.418,201.001,261.135z M256.416,247.503c-1.227,0.703-2.562,1.209-3.82,1.858
	c-1.15,0.597-1.529-0.005-1.563-0.995c-0.022-0.673,0.076-1.376,0.262-2.028c2.343-8.263,6.654-15.316,13.069-21.054l0.45-0.231
	C267.865,233.59,264.338,242.963,256.416,247.503z"/>
</svg>
